<svg width="95" height="26" viewBox="0 0 95 26" fill="none" xmlns="http://www.w3.org/2000/svg">
<path fill-rule="evenodd" clip-rule="evenodd" d="M94.9838 0V6.62984H82.7922V23.343C80.3763 22.022 77.943 20.756 75.4924 19.5449L74.02 18.8248V6.62984H61.8132V0H94.9838ZM9.56322 6.29924L0.791016 5.85166V25.9955H9.56322V6.29924ZM23.6028 7.85731L33.2347 25.998H40.1634L46.7048 13.6878L39.2757 11.5253L36.6889 16.8743L33.2984 9.85533L33.0142 9.78461C29.3273 8.87295 25.9704 8.25939 24.4541 7.99886L23.6028 7.85731ZM13.4024 6.57812L21.444 7.51991L21.6326 25.9955H13.4024V6.57812ZM59.9027 18.885L51.7787 15.5205L51.7685 16.3411L51.67 25.9955H59.9027V18.885ZM59.9044 12.7341V0H44.844L41.4034 7.12066L42.6982 7.42196C44.8538 7.93514 46.9965 8.50325 49.1264 9.12631L50.5044 6.5332H51.8679L51.8339 9.94433L53.1868 10.375C55.4389 11.1043 57.6781 11.8906 59.9044 12.7341ZM28.5409 0L31.0623 5.22266C25.603 4.45692 20.0954 4.08984 14.5836 4.12412L13.4024 4.13761V0H28.5409ZM9.56835 4.27437V0.00282534H0.791898L0.796145 5.08647L2.05701 4.92623C4.57619 4.62051 7.07996 4.40322 9.56835 4.27437Z" fill="white"/>
<path d="M59.9144 18.2197C64.7052 20.3622 70.74 23.3844 75.3832 26L82.9849 25.998V24.218C80.0647 22.615 77.1337 21.0954 74.1919 19.6591C69.505 17.3754 64.788 15.3254 60.0409 13.509C57.354 12.488 54.656 11.5475 51.9469 10.6876C50.9251 10.3642 49.9015 10.0523 48.8763 9.75162C46.3142 9.00626 43.742 8.34003 41.1596 7.75294C37.9674 7.03084 34.5137 6.24208 31.2874 5.77297C25.2946 4.90508 19.4861 4.48889 13.4315 4.59111C12.1514 4.6138 10.7443 4.57586 9.45961 4.64336C6.54391 4.79765 3.94635 5.10633 1 5.5L9.45961 5.77297C10.7454 5.84842 12.0279 5.94173 13.3069 6.05291L21.5 7C22.2227 7.10664 22.9442 7.22009 23.6646 7.34035C27.9927 8.05163 32.1632 9.02968 36.3861 10.2144C42.628 12.0267 43.5868 12.1949 46.9867 13.2739C48.9913 13.9101 50.3134 14.3556 52 15L59.9144 18.2197Z" fill="white"/>
</svg>
