<?xml version="1.0" encoding="UTF-8" standalone="no"?>
<!DOCTYPE svg PUBLIC "-//W3C//DTD SVG 1.1//EN" "http://www.w3.org/Graphics/SVG/1.1/DTD/svg11.dtd">
<svg width="24" height="24" viewBox="0 0 24 24" version="1.1" xmlns="http://www.w3.org/2000/svg" xmlns:xlink="http://www.w3.org/1999/xlink" xml:space="preserve" xmlns:serif="http://www.serif.com/" style="fill-rule:evenodd;clip-rule:evenodd;stroke-linejoin:round;stroke-miterlimit:2;">
    <path d="M4.278,11.737L24,11.737L21.352,19.075C21.152,19.628 20.605,20 19.991,20L8.048,20C7.516,20 7.044,19.676 6.877,19.195L4.278,11.737ZM8.391,18.923L10.262,18.923L9.905,17.983L8.023,17.983L8.391,18.923ZM9.726,17.513L9.302,16.397L7.402,16.397L7.839,17.513L9.726,17.513ZM16.725,16.397L15.39,16.397L15.369,17.513L16.539,17.513L16.725,16.397ZM13.021,16.005L14.589,16.005L14.576,14.889L12.839,14.889L13.021,16.005ZM15.398,16.005L16.79,16.005L16.976,14.889L15.418,14.889L15.398,16.005ZM19.215,16.397L17.528,16.397L17.303,17.513L18.866,17.513L19.215,16.397ZM20.375,16.005L21.512,16.005L21.954,14.889L20.774,14.889L20.375,16.005ZM20.928,14.459L22.124,14.459L22.519,13.46L21.285,13.46L20.928,14.459ZM17.606,16.005L19.337,16.005L19.687,14.889L17.831,14.889L17.606,16.005ZM10.168,16.005L12.235,16.005L12.037,14.889L9.786,14.889L10.168,16.005ZM12.304,16.397L10.302,16.397L10.684,17.513L12.501,17.513L12.304,16.397ZM8.565,14.459L8.185,13.46L6.252,13.46L6.643,14.459L8.565,14.459ZM20.235,16.397L19.836,17.513L20.915,17.513L21.357,16.397L20.235,16.397ZM15.426,14.459L17.047,14.459L17.214,13.46L15.445,13.46L15.426,14.459ZM17.918,14.459L19.821,14.459L20.134,13.46L18.118,13.46L17.918,14.459ZM12.585,17.983L10.845,17.983L11.167,18.923L12.751,18.923L12.585,17.983ZM14.593,16.397L13.085,16.397L13.266,17.513L14.605,17.513L14.593,16.397ZM9.638,14.459L11.961,14.459L11.784,13.46L9.296,13.46L9.638,14.459ZM18.719,17.983L17.209,17.983L17.008,18.982L18.406,18.982L18.719,17.983ZM14.611,17.983L13.343,17.983L13.512,19.021L14.622,19.021L14.611,17.983ZM12.769,14.459L14.572,14.459L14.561,13.46L12.607,13.46L12.769,14.459ZM16.461,17.983L15.361,17.983L15.342,18.982L16.288,19.021L16.461,17.983ZM19.668,17.983L19.311,18.982L20.319,19.021L20.73,17.983L19.668,17.983ZM9.153,16.005L8.729,14.889L6.812,14.889L7.249,16.005L9.153,16.005ZM20.525,8.325L20.237,7.738L21.183,7.738L20.977,8.325L20.525,8.325ZM23.969,10.988L17.491,10.988C17.767,9.541 19.112,8.442 20.73,8.442C22.349,8.442 23.694,9.541 23.969,10.988ZM13.943,5.114C14.121,4.908 15.075,5.006 15.219,5.212C15.362,5.417 15.465,5.74 15.157,5.799C14.848,5.858 14.613,5.924 14.54,6.23C14.437,6.661 14.485,7.346 14.54,7.64C14.54,7.64 13.961,7.674 13.594,7.561C13.337,7.482 12.977,7.248 12.977,7.248C13.174,6.872 13.333,6.464 13.475,6.099C13.643,5.666 13.787,5.294 13.943,5.114ZM5.615,9.223L5.923,8.907L6.293,9.262L6.044,9.534L5.615,9.223ZM9.872,10.871C9.872,10.91 9.87,10.949 9.868,10.988L5.68,10.988C5.677,10.949 5.676,10.91 5.676,10.871C5.676,9.767 6.615,8.873 7.774,8.873C8.932,8.873 9.872,9.767 9.872,10.871ZM9.275,9.147C9.522,8.129 10.561,7.268 11.475,7.268C12.368,7.268 12.581,7.411 12.814,7.567C12.995,7.688 13.187,7.817 13.717,7.894C14.123,7.953 14.483,7.946 14.814,7.938C15.305,7.928 15.735,7.919 16.164,8.129C16.884,8.482 17.254,9.436 17.254,10.029L17.254,10.988L10.159,10.988C10.242,10.264 9.871,9.5 9.275,9.147ZM0.086,8.199C0.282,7.836 0.75,7.693 1.131,7.88L5.5,10.05C5.371,10.347 5.326,10.669 5.346,10.988L4.088,10.988L0.422,9.194C0.04,9.008 -0.11,8.562 0.086,8.199Z"/>
</svg>
