<svg width="24" height="24" viewBox="1.5 6 47 38" fill="none" xmlns="http://www.w3.org/2000/svg">
<path d="M1.5708 24.2043C1.5708 23.6391 2.02898 23.1809 2.59418 23.1809V23.1809C3.15937 23.1809 3.61756 23.6391 3.61756 24.2043V26.7957C3.61756 27.3609 3.15937 27.8191 2.59418 27.8191V27.8191C2.02898 27.8191 1.5708 27.3609 1.5708 26.7957V24.2043Z" fill="currentColor"/>
<path d="M8.79688 22.8028C8.79688 22.2376 9.25506 21.7794 9.82025 21.7794V21.7794C10.3854 21.7794 10.8436 22.2376 10.8436 22.8028V28.1973C10.8436 28.7625 10.3854 29.2207 9.82025 29.2207V29.2207C9.25506 29.2207 8.79688 28.7625 8.79688 28.1973V22.8028Z" fill="currentColor"/>
<path d="M16.0234 18.6872C16.0234 18.122 16.4816 17.6638 17.0468 17.6638V17.6638C17.612 17.6638 18.0702 18.122 18.0702 18.6872V32.3128C18.0702 32.878 17.612 33.3362 17.0468 33.3362V33.3362C16.4816 33.3362 16.0234 32.878 16.0234 32.3128V18.6872Z" fill="currentColor"/>
<path d="M23.25 7.2829C23.25 6.7177 23.7082 6.25952 24.2734 6.25952V6.25952C24.8386 6.25952 25.2968 6.7177 25.2968 7.2829V43.717C25.2968 44.2822 24.8386 44.7404 24.2734 44.7404V44.7404C23.7082 44.7404 23.25 44.2822 23.25 43.717V7.2829Z" fill="currentColor"/>
<path d="M30.4766 15.1275C30.4766 14.5623 30.9347 14.1041 31.4999 14.1041V14.1041C32.0651 14.1041 32.5233 14.5623 32.5233 15.1275V35.8726C32.5233 36.4378 32.0651 36.896 31.4999 36.896V36.896C30.9347 36.896 30.4766 36.4378 30.4766 35.8726V15.1275Z" fill="currentColor"/>
<path d="M37.7031 18.6872C37.7031 18.122 38.1613 17.6638 38.7265 17.6638V17.6638C39.2917 17.6638 39.7499 18.122 39.7499 18.6872V32.3128C39.7499 32.878 39.2917 33.3362 38.7265 33.3362V33.3362C38.1613 33.3362 37.7031 32.878 37.7031 32.3128V18.6872Z" fill="currentColor"/>
<path d="M44.9297 22.8028C44.9297 22.2376 45.3879 21.7794 45.9531 21.7794V21.7794C46.5183 21.7794 46.9764 22.2376 46.9764 22.8028V28.1973C46.9764 28.7625 46.5183 29.2207 45.9531 29.2207V29.2207C45.3879 29.2207 44.9297 28.7625 44.9297 28.1973V22.8028Z" fill="currentColor"/>
</svg>
