<svg width="209" height="22" viewBox="0 0 209 22" fill="none" xmlns="http://www.w3.org/2000/svg">
<g clip-path="url(#clip0_1804_703)">
<path d="M28.0553 0.587265L23.894 5.99063H16.4681V21.3554H10.0383V5.99063H0.285645L4.44695 0.587265H28.0553Z" fill="#C4C9D1"/>
<path d="M32.2483 21.3554L36.1309 16.015H43.2755C43.9591 16.015 44.5481 16.0368 45.0473 16.078C44.7565 15.705 44.4149 15.24 44.022 14.6805C43.6489 14.1017 43.2855 13.564 42.9338 13.0675L39.2064 7.57211L29.4538 21.3554H21.8438L35.1688 2.57568C35.6026 1.97504 36.1526 1.43733 36.8142 0.960204C37.4784 0.485504 38.317 0.245743 39.33 0.245743C40.3043 0.245743 41.1115 0.473421 41.7536 0.928747C42.4152 1.3647 42.975 1.91207 43.4308 2.57568L56.4142 21.3554H32.2483Z" fill="#C4C9D1"/>
<path d="M79.7725 21.6969C79.3582 21.6969 78.9436 21.6242 78.5316 21.4789C78.1365 21.3554 77.693 21.0551 77.1961 20.5779L64.46 9.15608V21.3554H58.6191V4.12811C58.6191 3.44271 58.7138 2.85417 58.9005 2.35767C59.1063 1.86117 59.3657 1.45671 59.6759 1.1467C60.0081 0.836689 60.3812 0.609009 60.7955 0.463695C61.2295 0.318378 61.6755 0.245743 62.131 0.245743C62.5235 0.245743 62.9164 0.318378 63.3115 0.463695C63.7235 0.587212 64.191 0.887587 64.7073 1.36471L77.4431 12.7866V0.587215H83.3135V17.7854C83.3135 18.4684 83.2117 19.0569 83.0032 19.5535C82.8165 20.0499 82.5572 20.4641 82.2276 20.7959C81.9174 21.1059 81.544 21.3336 81.1079 21.4789C80.6739 21.6242 80.2282 21.6969 79.7725 21.6969Z" fill="#C4C9D1"/>
<path d="M113.32 21.3554H103.599L97.3241 15.8915C96.2457 14.9591 95.4191 14.2349 94.8376 13.7191C94.28 13.2008 93.8246 12.7672 93.4706 12.4136C93.4924 12.8907 93.5118 13.3872 93.5335 13.9055C93.5556 14.402 93.565 14.8985 93.565 15.395V21.3554H87.104V0.587265H93.565V5.39969C93.565 6.04152 93.5556 6.67123 93.5335 7.29366C93.5118 7.91369 93.4826 8.49252 93.4415 9.0326C93.8535 8.65963 94.353 8.20432 94.9319 7.66666C95.5332 7.10717 96.3086 6.43386 97.2612 5.64674L103.257 0.587265H112.573L104.622 6.54769C103.941 7.06597 103.327 7.52129 102.789 7.91363C102.273 8.306 101.805 8.64754 101.391 8.93817C100.979 9.2288 100.596 9.48794 100.242 9.71317C99.9125 9.94083 99.5805 10.1588 99.2486 10.3671C99.8496 10.7788 100.574 11.2971 101.423 11.9171C102.273 12.5395 103.371 13.3969 104.716 14.4941L113.32 21.3554Z" fill="#C4C9D1"/>
<path d="M141.335 21.8285C140.92 21.8285 140.506 21.755 140.092 21.6079C139.699 21.4828 139.253 21.1788 138.756 20.6959L126.022 9.13389V21.4828H120.182V4.04426C120.182 3.35046 120.276 2.75468 120.46 2.25209C120.669 1.7495 120.928 1.34008 121.238 1.02627C121.57 0.712454 121.941 0.481983 122.356 0.334883C122.792 0.187784 123.235 0.114258 123.691 0.114258C124.086 0.114258 124.479 0.187784 124.871 0.334883C125.286 0.459917 125.753 0.763974 126.27 1.24695L139.006 12.8089V0.45992H144.876V17.8691C144.876 18.5605 144.772 19.1562 144.565 19.6588C144.379 20.1614 144.119 20.5807 143.79 20.9165C143.477 21.2303 143.106 21.4608 142.67 21.6079C142.236 21.755 141.79 21.8285 141.335 21.8285Z" fill="#C4C9D1"/>
<path d="M172.801 16.077L168.671 21.4829H148.667V0.459969H172.74L168.576 5.9296H155.128V8.44255H171.589L167.893 13.2184H155.128V16.077H172.801Z" fill="#C4C9D1"/>
<path d="M200.82 0.459969L196.656 5.9296H189.233V21.4829H182.803V5.9296H173.05L177.212 0.459969H200.82Z" fill="#C4C9D1"/>
<path d="M205.444 7.06029C204.951 7.06029 204.493 6.97411 204.07 6.801C203.646 6.62157 203.278 6.37494 202.964 6.06111C202.649 5.74729 202.403 5.37891 202.223 4.9568C202.05 4.53389 201.964 4.0762 201.964 3.58291C201.964 3.08966 202.05 2.63117 202.223 2.20905C202.403 1.78614 202.649 1.42094 202.964 1.11343C203.278 0.799611 203.646 0.55614 204.07 0.383023C204.493 0.204374 204.951 0.114258 205.444 0.114258C205.938 0.114258 206.396 0.204374 206.819 0.383023C207.242 0.55614 207.607 0.799611 207.915 1.11343C208.229 1.42094 208.472 1.78614 208.646 2.20905C208.825 2.63117 208.915 3.08966 208.915 3.58291C208.915 4.0762 208.825 4.53389 208.646 4.9568C208.472 5.37891 208.229 5.74729 207.915 6.06111C207.607 6.37494 207.242 6.62157 206.819 6.801C206.396 6.97411 205.938 7.06029 205.444 7.06029ZM205.444 6.59943C205.874 6.59943 206.268 6.52591 206.627 6.37809C206.992 6.22474 207.31 6.01051 207.579 5.73463C207.848 5.45954 208.056 5.1394 208.204 4.7742C208.357 4.40897 208.434 4.01217 208.434 3.58291C208.434 3.15369 208.357 2.75607 208.204 2.39166C208.056 2.02645 207.848 1.70946 207.579 1.43991C207.31 1.16482 206.992 0.953757 206.627 0.805934C206.268 0.65258 205.874 0.575112 205.444 0.575112C205.015 0.575112 204.618 0.65258 204.252 0.805934C203.887 0.953757 203.57 1.16482 203.3 1.43991C203.031 1.70946 202.82 2.02645 202.665 2.39166C202.518 2.75607 202.445 3.15369 202.445 3.58291C202.445 4.01217 202.518 4.40897 202.665 4.7742C202.82 5.1394 203.031 5.45954 203.3 5.73463C203.57 6.01051 203.887 6.22474 204.252 6.37809C204.618 6.52591 205.015 6.59943 205.444 6.59943ZM204.396 5.66743C204.14 5.66743 204.012 5.53306 204.012 5.26429V2.00669C204.012 1.86598 204.05 1.75689 204.127 1.68022C204.204 1.59721 204.319 1.55532 204.473 1.55532H205.713C206.155 1.55532 206.496 1.66441 206.732 1.88179C206.969 2.09364 207.088 2.37822 207.088 2.7371C207.088 3.10863 206.969 3.394 206.732 3.5924C206.496 3.78449 206.165 3.88014 205.742 3.88014L205.896 3.775C206.094 3.775 206.255 3.81611 206.377 3.89991C206.505 3.98291 206.614 4.15286 206.704 4.40897L206.982 5.17734C207.04 5.3378 207.027 5.45954 206.944 5.54254C206.868 5.62554 206.761 5.66743 206.627 5.66743C206.53 5.66743 206.454 5.63897 206.396 5.58129C206.338 5.52357 206.293 5.45006 206.261 5.35994L205.925 4.37974C205.874 4.23271 205.793 4.13311 205.685 4.08251C205.575 4.03114 205.444 4.00506 205.29 4.00506H204.637L204.781 3.89991V5.26429C204.781 5.53306 204.653 5.66743 204.396 5.66743ZM204.771 3.4098H205.607C205.857 3.4098 206.043 3.35843 206.165 3.25566C206.287 3.15369 206.348 2.99323 206.348 2.77583C206.348 2.55766 206.287 2.39798 206.165 2.29522C206.043 2.19245 205.857 2.14186 205.607 2.14186H204.771V3.4098Z" fill="#C4C9D1"/>
</g>
<defs>
<clipPath id="clip0_1804_703">
<rect width="209" height="22" fill="white"/>
</clipPath>
</defs>
</svg>
