<svg width="24px" height="24px" viewBox="0 0 24 25" fill="none" xmlns="http://www.w3.org/2000/svg">
<path fill-rule="evenodd" clip-rule="evenodd" d="M1.33335 6.64886C3.31204 2.80709 7.30563 0.199219 11.9233 0.199219C16.5276 0.199219 20.559 2.82265 22.5421 6.64886H17.0558C16.8956 6.64886 16.7577 6.76289 16.7266 6.92114L15.4075 13.6217C15.3945 13.6875 15.3142 13.7126 15.2665 13.6657L11.1898 9.65505C11.1468 9.61269 11.1765 9.53909 11.2367 9.53909H12.4939C12.5175 9.53909 12.5401 9.52905 12.556 9.51144L15.0138 6.79023C15.0628 6.73595 15.0246 6.64886 14.9517 6.64886H1.33335ZM23.5508 9.50576C23.7398 10.3461 23.8376 11.2177 23.8376 12.1159C23.8376 18.6922 18.4997 24.0302 11.9233 24.0302C5.34696 24.0302 0.00671387 18.6922 0.00671387 12.1159C0.00671387 11.231 0.104539 10.3684 0.286844 9.53909H6.24019C6.26158 9.53909 6.28215 9.54731 6.29772 9.56207L14.6502 17.4832C14.6708 17.5027 14.6802 17.5314 14.6753 17.5594L14.3467 19.4382L17.3604 19.3504C17.52 19.3457 17.6542 19.2286 17.6814 19.0702L19.3196 9.53909L23.5508 9.50576ZM8.48388 13.2907C8.48828 13.2631 8.4789 13.2352 8.45882 13.216L6.08486 10.9457C6.03636 10.8993 5.95609 10.9259 5.94445 10.9923L4.54985 19.0414C4.51352 19.2484 4.67164 19.4382 4.88037 19.4382H7.52681L8.48388 13.2907Z" fill="currentColor"/>
</svg>
