<svg width="1038" height="997" viewBox="0 0 1038 997" fill="none" xmlns="http://www.w3.org/2000/svg">
<g filter="url(#filter0_i_11_6)">
<path d="M205.522 257.687L335.222 179.554" stroke="#747474" stroke-opacity="0.08" stroke-width="1.06667"/>
<path d="M213.057 245.788L331.431 173.132" stroke="#747474" stroke-opacity="0.08" stroke-width="1.06667"/>
<path d="M220.318 233.877L328.097 167.427" stroke="#747474" stroke-opacity="0.08" stroke-width="1.06667"/>
<path d="M228.059 221.668L325.242 162.521" stroke="#747474" stroke-opacity="0.08" stroke-width="1.06667"/>
<path d="M237.558 207.794L321.954 157.044" stroke="#747474" stroke-opacity="0.08" stroke-width="1.06667"/>
<path d="M243.518 195.586L318.78 151.408" stroke="#747474" stroke-opacity="0.08" stroke-width="1.06667"/>
<path d="M253.405 181.506L315.515 145.726" stroke="#747474" stroke-opacity="0.08" stroke-width="1.06667"/>
<path d="M263.863 167.632L311.724 139.154" stroke="#747474" stroke-opacity="0.08" stroke-width="1.06667"/>
<path d="M279.002 150.559L308.596 133.764" stroke="#747474" stroke-opacity="0.08" stroke-width="1.06667"/>
<path d="M291.521 136.685L305.77 128.652" stroke="#747474" stroke-opacity="0.08" stroke-width="1.06667"/>
<path fill-rule="evenodd" clip-rule="evenodd" d="M446.726 207.376L500.074 194.532L484.277 209.578L446.726 207.376Z" fill="#747474" fill-opacity="0.08"/>
<path d="M484.49 208.316L503.561 246.101L499.249 195.412L495.523 196.541" stroke="#747474" stroke-opacity="0.08" stroke-width="1.06667"/>
<path fill-rule="evenodd" clip-rule="evenodd" d="M420.575 250.975L464.731 224.758L454.325 243.39L420.575 250.975Z" fill="#747474" fill-opacity="0.08"/>
<path d="M454.214 242.11L480.055 273.696L464.209 225.822L461.18 227.877" stroke="#747474" stroke-opacity="0.08" stroke-width="1.0217"/>
<path fill-rule="evenodd" clip-rule="evenodd" d="M401.408 287.941L438.613 260.801L430.899 278.316L401.408 287.941Z" fill="#747474" fill-opacity="0.08"/>
<path d="M430.692 277.183L456.436 303.201L438.237 261.795L435.707 263.886" stroke="#747474" stroke-opacity="0.08" stroke-width="0.916302"/>
<path fill-rule="evenodd" clip-rule="evenodd" d="M393.051 333.735L421.463 305.257L417.189 321.419L393.051 333.735Z" fill="#747474" fill-opacity="0.08"/>
<path d="M416.857 320.47L442.613 339.422L421.274 306.165L419.375 308.314" stroke="#747474" stroke-opacity="0.08" stroke-width="0.800471"/>
<path fill-rule="evenodd" clip-rule="evenodd" d="M393.129 371.396L416.02 338.321L414.691 354.985L393.129 371.396Z" fill="#747474" fill-opacity="0.08"/>
<path d="M414.195 354.111L442.914 368.18L415.997 339.248L414.51 341.7" stroke="#747474" stroke-opacity="0.08" stroke-width="0.800471"/>
<path fill-rule="evenodd" clip-rule="evenodd" d="M409.625 413.769L418.258 374.488L423.348 390.409L409.625 413.769Z" fill="#747474" fill-opacity="0.08"/>
<path d="M422.559 389.793L454.471 391.92L418.588 375.356L418.142 378.189" stroke="#747474" stroke-opacity="0.08" stroke-width="0.800471"/>
<path fill-rule="evenodd" clip-rule="evenodd" d="M443.518 445.845L435.952 406.346L446.913 418.971L443.518 445.845Z" fill="#747474" fill-opacity="0.08"/>
<path d="M445.944 418.716L476.111 408.096L436.597 407.014L437.305 409.792" stroke="#747474" stroke-opacity="0.08" stroke-width="0.800471"/>
<path fill-rule="evenodd" clip-rule="evenodd" d="M492.531 466.859L468.137 434.871L483.58 441.291L492.531 466.859Z" fill="#747474" fill-opacity="0.08"/>
<path d="M482.601 441.493L504.866 418.551L469.013 435.179L470.887 437.352" stroke="#747474" stroke-opacity="0.08" stroke-width="0.800471"/>
<path d="M496.433 310.128C493.482 310.128 490.56 310.708 487.834 311.837C485.108 312.965 482.631 314.619 480.544 316.704C478.458 318.789 476.803 321.265 475.674 323.989C474.545 326.713 473.963 329.633 473.963 332.582C473.963 335.531 474.545 338.451 475.674 341.175C476.803 343.899 478.458 346.375 480.544 348.46C482.631 350.545 485.108 352.199 487.834 353.327C490.56 354.456 493.482 355.036 496.433 355.036C499.383 355.036 502.305 354.456 505.031 353.327C507.758 352.199 510.235 350.545 512.321 348.46C514.408 346.375 516.063 343.899 517.192 341.175C518.321 338.451 518.902 335.531 518.902 332.582C518.902 329.633 518.321 326.713 517.192 323.989C516.063 321.265 514.408 318.789 512.321 316.704C510.235 314.619 507.758 312.965 505.031 311.837C502.305 310.708 499.383 310.128 496.433 310.128ZM499.722 315.058C504.372 315.058 508.833 316.905 512.121 320.191C515.41 323.477 517.257 327.934 517.258 332.582C517.257 337.23 515.41 341.687 512.121 344.973C508.833 348.259 504.372 350.106 499.722 350.106C497.419 350.106 495.138 349.653 493.01 348.773C490.883 347.892 488.949 346.601 487.321 344.974C485.692 343.347 484.4 341.415 483.519 339.289C482.637 337.162 482.183 334.884 482.183 332.582C482.183 330.281 482.637 328.002 483.519 325.875C484.4 323.749 485.692 321.817 487.321 320.19C488.949 318.563 490.883 317.272 493.01 316.391C495.138 315.511 497.419 315.058 499.722 315.058V315.058Z" fill="#747474" fill-opacity="0.08"/>
<path d="M557.812 313.779C555.917 313.779 554.04 314.152 552.289 314.877C550.538 315.601 548.947 316.664 547.607 318.003C546.267 319.342 545.204 320.932 544.479 322.682C543.754 324.431 543.38 326.307 543.38 328.201C543.38 330.095 543.754 331.97 544.479 333.72C545.204 335.47 546.267 337.059 547.607 338.399C548.947 339.738 550.538 340.8 552.289 341.525C554.04 342.25 555.917 342.623 557.812 342.623C559.707 342.623 561.584 342.25 563.335 341.525C565.086 340.8 566.677 339.738 568.017 338.399C569.357 337.059 570.42 335.47 571.145 333.72C571.87 331.97 572.244 330.095 572.244 328.201C572.244 326.307 571.87 324.431 571.145 322.682C570.42 320.932 569.357 319.342 568.017 318.003C566.677 316.664 565.086 315.601 563.335 314.877C561.584 314.152 559.707 313.779 557.812 313.779ZM559.924 316.945C562.911 316.946 565.776 318.131 567.888 320.242C570 322.353 571.187 325.216 571.187 328.201C571.187 331.186 570 334.049 567.888 336.159C565.776 338.27 562.911 339.456 559.924 339.456C558.445 339.456 556.981 339.165 555.614 338.6C554.247 338.034 553.005 337.205 551.959 336.16C550.913 335.115 550.084 333.874 549.517 332.508C548.951 331.143 548.66 329.679 548.66 328.201C548.66 326.723 548.951 325.259 549.517 323.893C550.084 322.528 550.913 321.287 551.959 320.242C553.005 319.196 554.247 318.367 555.614 317.802C556.981 317.236 558.445 316.945 559.924 316.945V316.945Z" fill="#747474" fill-opacity="0.08"/>
<path d="M608.23 316.7C606.959 316.7 605.7 316.95 604.525 317.436C603.351 317.922 602.283 318.635 601.384 319.534C600.485 320.432 599.772 321.499 599.285 322.672C598.799 323.846 598.548 325.105 598.548 326.375C598.548 327.646 598.799 328.904 599.285 330.078C599.772 331.252 600.485 332.318 601.384 333.217C602.283 334.115 603.351 334.828 604.525 335.314C605.7 335.801 606.959 336.051 608.23 336.051C609.502 336.051 610.761 335.801 611.936 335.314C613.11 334.828 614.178 334.115 615.077 333.217C615.976 332.318 616.689 331.252 617.175 330.078C617.662 328.904 617.912 327.646 617.912 326.375C617.912 325.105 617.662 323.846 617.175 322.673C616.689 321.499 615.976 320.432 615.077 319.534C614.178 318.635 613.11 317.922 611.936 317.436C610.761 316.95 609.502 316.7 608.23 316.7V316.7ZM609.648 318.824C611.652 318.824 613.573 319.62 614.991 321.036C616.408 322.452 617.204 324.373 617.204 326.375C617.204 328.378 616.408 330.298 614.991 331.715C613.573 333.131 611.652 333.926 609.648 333.926C608.655 333.926 607.673 333.731 606.756 333.352C605.839 332.972 605.006 332.416 604.304 331.715C603.602 331.014 603.046 330.181 602.666 329.265C602.286 328.349 602.09 327.367 602.09 326.375C602.09 325.383 602.286 324.401 602.666 323.485C603.046 322.569 603.602 321.737 604.304 321.035C605.006 320.334 605.839 319.778 606.756 319.399C607.673 319.019 608.655 318.824 609.648 318.824V318.824Z" fill="#747474" fill-opacity="0.08"/>
<path d="M584.484 741.686C572.074 741.686 562.014 751.739 562.014 764.14C562.014 776.541 572.074 786.595 584.484 786.595C596.893 786.595 606.953 776.541 606.953 764.14C606.953 751.739 596.893 741.686 584.484 741.686ZM589.414 745.518C597.083 745.517 604.591 753.902 604.591 764.086C604.591 774.27 597.083 782.397 589.414 782.396C581.747 782.395 575.532 774.14 575.532 763.957C575.531 753.774 581.747 745.519 589.414 745.518Z" fill="#747474" fill-opacity="0.08"/>
<path fill-rule="evenodd" clip-rule="evenodd" d="M113.338 563.592L266.786 423.39L260.94 440.185L113.704 576.736L113.338 563.592Z" fill="#747474" fill-opacity="0.08"/>
<path fill-rule="evenodd" clip-rule="evenodd" d="M196.071 443.252C166.248 379.531 138.413 254.106 209.505 204.702L197.105 269.245L242.056 242.395L240.506 285.768L306.125 244.461L292.95 313.908L356.761 271.31C323.862 413.525 459.464 476.381 573.252 536.709C507.147 556.748 370.647 533.165 308.709 424.147L319.559 416.918C362.984 505.7 487.168 548.522 557.234 533.611C452.544 495.156 308.709 407.108 343.327 287.833L281.324 334.304L294.5 263.049L230.818 303.323L234.306 255.82L185.738 285.768L198.655 222.263C172.989 254.486 155.925 347.656 207.439 434.99L196.071 443.252Z" fill="#747474" fill-opacity="0.08"/>
<path d="M343.069 426.729C348.134 426.729 352.24 422.625 352.24 417.564C352.24 412.502 348.134 408.399 343.069 408.399C338.004 408.399 333.897 412.502 333.897 417.564C333.897 422.625 338.004 426.729 343.069 426.729Z" fill="#747474" fill-opacity="0.08"/>
<path d="M395.789 481.258C400.14 481.258 403.668 477.732 403.668 473.383C403.668 469.035 400.14 465.509 395.789 465.509C391.437 465.509 387.909 469.035 387.909 473.383C387.909 477.732 391.437 481.258 395.789 481.258Z" fill="#747474" fill-opacity="0.08"/>
<path d="M427.226 500.683C431.149 500.683 434.33 497.504 434.33 493.583C434.33 489.662 431.149 486.484 427.226 486.484C423.302 486.484 420.121 489.662 420.121 493.583C420.121 497.504 423.302 500.683 427.226 500.683Z" fill="#747474" fill-opacity="0.08"/>
<path d="M460.81 515.55C464.163 515.55 466.881 512.834 466.881 509.483C466.881 506.132 464.163 503.416 460.81 503.416C457.457 503.416 454.739 506.132 454.739 509.483C454.739 512.834 457.457 515.55 460.81 515.55Z" fill="#747474" fill-opacity="0.08"/>
<path d="M491.457 523.598C493.811 523.598 495.719 521.69 495.719 519.338C495.719 516.985 493.811 515.078 491.457 515.078C489.102 515.078 487.194 516.985 487.194 519.338C487.194 521.69 489.102 523.598 491.457 523.598Z" fill="#747474" fill-opacity="0.08"/>
<path d="M213.639 231.552C215.636 231.552 217.256 229.934 217.256 227.938C217.256 225.941 215.636 224.323 213.639 224.323C211.641 224.323 210.022 225.941 210.022 227.938C210.022 229.934 211.641 231.552 213.639 231.552Z" stroke="#747474" stroke-opacity="0.08" stroke-width="1.06667"/>
<path d="M218.547 209.091C220.545 209.091 222.164 207.473 222.164 205.477C222.164 203.481 220.545 201.862 218.547 201.862C216.55 201.862 214.931 203.481 214.931 205.477C214.931 207.473 216.55 209.091 218.547 209.091Z" stroke="#747474" stroke-opacity="0.08" stroke-width="1.06667"/>
<path d="M224.231 188.696C226.229 188.696 227.848 187.078 227.848 185.081C227.848 183.085 226.229 181.467 224.231 181.467C222.234 181.467 220.614 183.085 220.614 185.081C220.614 187.078 222.234 188.696 224.231 188.696Z" stroke="#747474" stroke-opacity="0.08" stroke-width="1.06667"/>
<path d="M230.69 166.751C232.687 166.751 234.306 165.133 234.306 163.137C234.306 161.141 232.687 159.523 230.69 159.523C228.692 159.523 227.073 161.141 227.073 163.137C227.073 165.133 228.692 166.751 230.69 166.751Z" stroke="#747474" stroke-opacity="0.08" stroke-width="1.06667"/>
<path d="M238.181 144.549C240.179 144.549 241.798 142.93 241.798 140.934C241.798 138.938 240.179 137.32 238.181 137.32C236.184 137.32 234.564 138.938 234.564 140.934C234.564 142.93 236.184 144.549 238.181 144.549Z" stroke="#747474" stroke-opacity="0.08" stroke-width="1.06667"/>
<path d="M247.834 120.434C249.832 120.434 251.451 118.816 251.451 116.82C251.451 114.824 249.832 113.205 247.834 113.205C245.837 113.205 244.217 114.824 244.217 116.82C244.217 118.816 245.837 120.434 247.834 120.434Z" stroke="#747474" stroke-opacity="0.08" stroke-width="1.06667"/>
<path d="M258.105 95.9523C260.103 95.9523 261.722 94.3341 261.722 92.3379C261.722 90.3417 260.103 88.7235 258.105 88.7235C256.108 88.7235 254.488 90.3417 254.488 92.3379C254.488 94.3341 256.108 95.9523 258.105 95.9523Z" stroke="#747474" stroke-opacity="0.08" stroke-width="1.06667"/>
<path d="M273.574 73.1646C275.572 73.1646 277.191 71.5464 277.191 69.5502C277.191 67.5541 275.572 65.9359 273.574 65.9359C271.577 65.9359 269.958 67.5541 269.958 69.5502C269.958 71.5464 271.577 73.1646 273.574 73.1646Z" stroke="#747474" stroke-opacity="0.08" stroke-width="1.06667"/>
<path d="M183.509 447.395C184.941 447.395 186.103 446.234 186.103 444.802C186.103 443.37 184.941 442.21 183.509 442.21C182.076 442.21 180.915 443.37 180.915 444.802C180.915 446.234 182.076 447.395 183.509 447.395Z" fill="#747474" fill-opacity="0.08"/>
<path d="M175 430.813C176.433 430.813 177.594 429.652 177.594 428.22C177.594 426.789 176.433 425.628 175 425.628C173.567 425.628 172.406 426.789 172.406 428.22C172.406 429.652 173.567 430.813 175 430.813Z" fill="#747474" fill-opacity="0.08"/>
<path d="M168.964 412.977C170.397 412.977 171.558 411.816 171.558 410.385C171.558 408.953 170.397 407.792 168.964 407.792C167.532 407.792 166.37 408.953 166.37 410.385C166.37 411.816 167.532 412.977 168.964 412.977Z" fill="#747474" fill-opacity="0.08"/>
<path d="M163.301 392.531C164.734 392.531 165.895 391.37 165.895 389.938C165.895 388.507 164.734 387.346 163.301 387.346C161.868 387.346 160.707 388.507 160.707 389.938C160.707 391.37 161.868 392.531 163.301 392.531Z" fill="#747474" fill-opacity="0.08"/>
<path d="M158.552 369.894C159.984 369.894 161.146 368.734 161.146 367.302C161.146 365.87 159.984 364.709 158.552 364.709C157.119 364.709 155.958 365.87 155.958 367.302C155.958 368.734 157.119 369.894 158.552 369.894Z" fill="#747474" fill-opacity="0.08"/>
<path d="M157.638 346.345C159.071 346.345 160.232 345.184 160.232 343.752C160.232 342.321 159.071 341.16 157.638 341.16C156.205 341.16 155.044 342.321 155.044 343.752C155.044 345.184 156.205 346.345 157.638 346.345Z" fill="#747474" fill-opacity="0.08"/>
<path d="M154.533 324.621C155.965 324.621 157.127 323.46 157.127 322.028C157.127 320.597 155.965 319.436 154.533 319.436C153.1 319.436 151.938 320.597 151.938 322.028C151.938 323.46 153.1 324.621 154.533 324.621Z" fill="#747474" fill-opacity="0.08"/>
<path d="M150.149 303.262C151.582 303.262 152.743 302.101 152.743 300.67C152.743 299.238 151.582 298.077 150.149 298.077C148.716 298.077 147.555 299.238 147.555 300.67C147.555 302.101 148.716 303.262 150.149 303.262Z" fill="#747474" fill-opacity="0.08"/>
<path d="M138.092 285.007C139.525 285.007 140.686 283.846 140.686 282.414C140.686 280.983 139.525 279.822 138.092 279.822C136.66 279.822 135.498 280.983 135.498 282.414C135.498 283.846 136.66 285.007 138.092 285.007Z" fill="#747474" fill-opacity="0.08"/>
<path d="M122.618 271.796C124.05 271.796 125.212 270.635 125.212 269.203C125.212 267.772 124.05 266.611 122.618 266.611C121.185 266.611 120.023 267.772 120.023 269.203C120.023 270.635 121.185 271.796 122.618 271.796Z" fill="#747474" fill-opacity="0.08"/>
<path d="M103.98 260.619C105.413 260.619 106.574 259.458 106.574 258.026C106.574 256.595 105.413 255.434 103.98 255.434C102.547 255.434 101.386 256.595 101.386 258.026C101.386 259.458 102.547 260.619 103.98 260.619Z" fill="#747474" fill-opacity="0.08"/>
<path d="M83.1689 255.868C84.6016 255.868 85.7631 254.707 85.7631 253.276C85.7631 251.844 84.6016 250.683 83.1689 250.683C81.7362 250.683 80.5747 251.844 80.5747 253.276C80.5747 254.707 81.7362 255.868 83.1689 255.868Z" fill="#747474" fill-opacity="0.08"/>
<path d="M336.922 185.241L351.004 209.617" stroke="#747474" stroke-opacity="0.08" stroke-width="1.06667"/>
<path d="M328.702 190.17L342.784 214.546" stroke="#747474" stroke-opacity="0.08" stroke-width="1.06667"/>
<path d="M320.846 194.734L334.929 219.11" stroke="#747474" stroke-opacity="0.08" stroke-width="1.06667"/>
<path d="M311.53 200.941L325.612 225.317" stroke="#747474" stroke-opacity="0.08" stroke-width="1.06667"/>
<path d="M304.406 205.14L318.488 229.515" stroke="#747474" stroke-opacity="0.08" stroke-width="1.06667"/>
<path d="M297.099 209.704L311.181 234.079" stroke="#747474" stroke-opacity="0.08" stroke-width="1.06667"/>
<path d="M288.695 214.633L302.778 239.008" stroke="#747474" stroke-opacity="0.08" stroke-width="1.06667"/>
<path d="M280.11 219.196L294.192 243.572" stroke="#747474" stroke-opacity="0.08" stroke-width="1.06667"/>
<path d="M271.889 223.03L285.972 247.406" stroke="#747474" stroke-opacity="0.08" stroke-width="1.06667"/>
<path d="M264.217 227.411L278.299 251.787" stroke="#747474" stroke-opacity="0.08" stroke-width="1.06667"/>
<path d="M258.006 231.245L272.088 255.621" stroke="#747474" stroke-opacity="0.08" stroke-width="1.06667"/>
<path d="M252.526 235.261L266.608 259.637" stroke="#747474" stroke-opacity="0.08" stroke-width="1.06667"/>
<path d="M246.498 239.277L260.58 263.653" stroke="#747474" stroke-opacity="0.08" stroke-width="1.06667"/>
<path d="M245.219 249.135L255.282 266.391" stroke="#747474" stroke-opacity="0.08" stroke-width="1.06667"/>
<path d="M244.038 258.416L250.35 269.495" stroke="#747474" stroke-opacity="0.08" stroke-width="1.06667"/>
<path d="M242.953 267.426L246.331 273.146" stroke="#747474" stroke-opacity="0.08" stroke-width="1.06667"/>
<path d="M228.79 434.344L302.225 385.419L274.458 448.583L309.532 424.851" stroke="#747474" stroke-opacity="0.08" stroke-width="1.06667"/>
<path d="M277.902 420.662C280.22 420.662 282.1 418.783 282.1 416.466C282.1 414.149 280.22 412.271 277.902 412.271C275.583 412.271 273.704 414.149 273.704 416.466C273.704 418.783 275.583 420.662 277.902 420.662Z" fill="#747474" fill-opacity="0.08"/>
<path d="M122.25 536.386C124.925 536.386 127.094 534.219 127.094 531.546C127.094 528.872 124.925 526.705 122.25 526.705C119.575 526.705 117.406 528.872 117.406 531.546C117.406 534.219 119.575 536.386 122.25 536.386Z" fill="#747474" fill-opacity="0.08"/>
<path d="M148.149 514.507C150.682 514.507 152.735 512.455 152.735 509.924C152.735 507.393 150.682 505.342 148.149 505.342C145.617 505.342 143.563 507.393 143.563 509.924C143.563 512.455 145.617 514.507 148.149 514.507Z" fill="#747474" fill-opacity="0.08"/>
<path d="M167.867 495.59C169.633 495.59 171.064 494.16 171.064 492.396C171.064 490.631 169.633 489.201 167.867 489.201C166.102 489.201 164.67 490.631 164.67 492.396C164.67 494.16 166.102 495.59 167.867 495.59Z" fill="#747474" fill-opacity="0.08"/>
<path d="M185.286 478.685C186.41 478.685 187.32 477.775 187.32 476.652C187.32 475.53 186.41 474.619 185.286 474.619C184.162 474.619 183.251 475.53 183.251 476.652C183.251 477.775 184.162 478.685 185.286 478.685Z" fill="#747474" fill-opacity="0.08"/>
<path d="M217.502 317.786L224.264 379.944L214.917 371.409L208.507 307.701" stroke="#747474" stroke-opacity="0.08" stroke-width="1.06667"/>
<path fill-rule="evenodd" clip-rule="evenodd" d="M268.795 329.827L208.147 307.272L218.575 320.527L274.712 341.014L268.795 329.827Z" fill="#747474" fill-opacity="0.08"/>
<path d="M238.738 348.531L296.153 369.154L290.237 357.968L230.092 336.189" stroke="#747474" stroke-opacity="0.08" stroke-width="1.06667"/>
<path fill-rule="evenodd" clip-rule="evenodd" d="M236.359 399.55L229.762 335.219L239.978 348.637L245.706 408.085L236.359 399.55Z" fill="#747474" fill-opacity="0.08"/>
<path d="M261.937 377.398L263.403 403.051L254.96 408.328L252.452 365.715" stroke="#747474" stroke-opacity="0.08" stroke-width="1.06667"/>
<path fill-rule="evenodd" clip-rule="evenodd" d="M297.858 381.074L251.549 365.361L261.976 378.616L289.049 387.097L297.858 381.074Z" fill="#747474" fill-opacity="0.08"/>
<path fill-rule="evenodd" clip-rule="evenodd" d="M296.033 475.488L316.843 509.909L316.543 493.195L296.033 475.488Z" fill="#747474" fill-opacity="0.08"/>
<path d="M315.994 494.036L345.525 481.762L316.877 508.982L315.544 506.443" stroke="#747474" stroke-opacity="0.08" stroke-width="0.800471"/>
<path fill-rule="evenodd" clip-rule="evenodd" d="M300.867 532.094L331.665 557.976L325.992 542.25L300.867 532.094Z" fill="#747474" fill-opacity="0.08"/>
<path d="M325.744 543.225L349.741 522.091L331.397 557.088L329.317 555.114" stroke="#747474" stroke-opacity="0.08" stroke-width="0.800471"/>
<path fill-rule="evenodd" clip-rule="evenodd" d="M331.15 587.695L370.311 596.958L358.161 585.467L331.15 587.695Z" fill="#747474" fill-opacity="0.08"/>
<path d="M358.378 586.446L370.291 556.785L369.672 596.284L366.925 595.456" stroke="#747474" stroke-opacity="0.08" stroke-width="0.800471"/>
<path fill-rule="evenodd" clip-rule="evenodd" d="M387.756 620.158L425.211 605.454L408.674 602.936L387.756 620.158Z" fill="#747474" fill-opacity="0.08"/>
<path d="M409.412 603.617L402.274 572.461L424.303 605.264L421.574 606.149" stroke="#747474" stroke-opacity="0.08" stroke-width="0.800471"/>
<path fill-rule="evenodd" clip-rule="evenodd" d="M456.33 632.378L485.9 605.097L469.578 608.746L456.33 632.378Z" fill="#747474" fill-opacity="0.08"/>
<path d="M470.508 609.114L452.555 582.664L484.984 605.249L482.762 607.064" stroke="#747474" stroke-opacity="0.08" stroke-width="0.800471"/>
<path fill-rule="evenodd" clip-rule="evenodd" d="M536.595 626.751L551.47 589.382L538.327 599.72L536.595 626.751Z" fill="#747474" fill-opacity="0.08"/>
<path d="M539.325 599.649L511.698 583.547L550.71 589.914L549.49 592.51" stroke="#747474" stroke-opacity="0.08" stroke-width="0.800471"/>
<path fill-rule="evenodd" clip-rule="evenodd" d="M616.092 605.508L617.505 565.317L608.614 579.471L616.092 605.508Z" fill="#747474" fill-opacity="0.08"/>
<path d="M609.532 579.074L578.092 573.195L616.971 566.076L616.698 568.931" stroke="#747474" stroke-opacity="0.08" stroke-width="0.800471"/>
<path fill-rule="evenodd" clip-rule="evenodd" d="M662.854 550.669L648.239 513.197L645.678 529.713L662.854 550.669Z" fill="#747474" fill-opacity="0.08"/>
<path d="M646.361 528.984L615.164 536.021L648.047 514.105L648.927 516.835" stroke="#747474" stroke-opacity="0.08" stroke-width="0.800509"/>
<path fill-rule="evenodd" clip-rule="evenodd" d="M161.166 621.647L176.162 584.327L178.556 600.87L161.166 621.647Z" fill="#747474" fill-opacity="0.08"/>
<path d="M177.88 600.131L209.003 607.492L176.345 585.237L175.438 587.958" stroke="#747474" stroke-opacity="0.08" stroke-width="0.800471"/>
<path fill-rule="evenodd" clip-rule="evenodd" d="M189.34 685.19L193.745 633.442L202.956 652.964L189.34 685.19Z" fill="#747474" fill-opacity="0.08"/>
<path d="M201.841 652.311L243.058 649.637L194.314 634.498L194.222 638.2" stroke="#747474" stroke-opacity="0.08" stroke-width="1.03371"/>
<path fill-rule="evenodd" clip-rule="evenodd" d="M250.504 720.482L224.543 675.489L243.262 686.259L250.504 720.482Z" fill="#747474" fill-opacity="0.08"/>
<path d="M241.975 686.356L274.282 660.645L225.615 676.028L227.656 679.119" stroke="#747474" stroke-opacity="0.08" stroke-width="1.03371"/>
<path fill-rule="evenodd" clip-rule="evenodd" d="M331.264 709.928L281.739 694.194L302.832 689.531L331.264 709.928Z" fill="#747474" fill-opacity="0.08"/>
<path d="M301.939 690.472L308.464 649.715L282.894 693.871L286.486 694.778" stroke="#747474" stroke-opacity="0.08" stroke-width="1.03371"/>
<path fill-rule="evenodd" clip-rule="evenodd" d="M387.145 674.722L335.228 677.031L353.417 665.381L387.145 674.722Z" fill="#747474" fill-opacity="0.08"/>
<path d="M352.902 666.571L344.959 626.069L336.2 676.329L339.884 675.941" stroke="#747474" stroke-opacity="0.08" stroke-width="1.03371"/>
<path fill-rule="evenodd" clip-rule="evenodd" d="M297.858 881.625C297.858 881.625 370.711 823.278 471.465 809.853C572.218 796.428 579.969 805.206 588.752 805.206C597.536 805.206 607.87 813.984 607.87 813.984L597.536 818.115L587.202 805.206L576.352 813.984L560.851 805.206L547.934 815.533L536.567 804.69L524.167 816.049L509.183 806.755L495.232 820.18L483.348 810.37L471.981 822.762L456.997 812.435L447.18 827.925L433.747 818.631L424.446 832.056L408.429 825.344L397.579 841.35L384.145 833.089L375.361 849.095L361.411 844.964L353.144 860.455L338.16 855.291L331.96 871.814L316.976 868.716L313.359 882.657L297.858 881.625Z" stroke="#747474" stroke-opacity="0.08" stroke-width="1.06667"/>
<path d="M200.205 926.546C200.205 926.546 244.123 870.265 343.327 827.409C442.53 784.553 495.749 785.585 495.749 785.585L502.466 792.298" stroke="#747474" stroke-opacity="0.08" stroke-width="1.06667"/>
<path fill-rule="evenodd" clip-rule="evenodd" d="M523.65 686.448L540.701 689.546L538.117 779.906L405.846 640.494L525.2 746.86L523.65 686.448Z" stroke="#747474" stroke-opacity="0.08" stroke-width="1.06667"/>
<path fill-rule="evenodd" clip-rule="evenodd" d="M480.151 648.662L652.963 656.329L660.27 665.092L492.939 657.425L480.151 648.662Z" fill="#747474" fill-opacity="0.08"/>
<path d="M629.988 785.894C626.124 783.98 621.44 785.56 619.525 789.421C617.611 793.283 619.191 797.964 623.056 799.878C626.92 801.791 631.604 800.211 633.519 796.35C635.433 792.488 633.853 787.807 629.988 785.894V785.894ZM630.932 787.847C633.32 789.029 634.364 792.798 632.792 795.969C631.219 799.14 627.627 800.513 625.239 799.33C622.852 798.148 622.191 794.619 623.763 791.448C625.335 788.278 628.545 786.665 630.932 787.847Z" fill="#747474" fill-opacity="0.08"/>
<path d="M654.059 809.317C650.195 807.404 645.51 808.983 643.596 812.845C641.681 816.706 643.262 821.388 647.126 823.301C650.99 825.214 655.674 823.635 657.589 819.773C659.503 815.911 657.923 811.23 654.059 809.317V809.317ZM655.003 811.27C657.391 812.452 658.434 816.221 656.862 819.392C655.29 822.563 651.697 823.936 649.309 822.754C646.922 821.571 646.261 818.042 647.833 814.872C649.405 811.701 652.615 810.088 655.003 811.27Z" fill="#747474" fill-opacity="0.08"/>
<path d="M681.845 826.616C677.596 825.876 673.552 828.718 672.812 832.964C672.072 837.209 674.916 841.251 679.164 841.991C683.412 842.731 687.457 839.888 688.197 835.643C688.937 831.397 686.093 827.356 681.845 826.616V826.616ZM683.304 828.222C685.929 828.679 688 831.997 687.391 835.484C686.784 838.97 683.728 841.305 681.103 840.847C678.478 840.39 676.843 837.193 677.451 833.707C678.058 830.221 680.679 827.765 683.304 828.222V828.222Z" fill="#747474" fill-opacity="0.08"/>
<path d="M715.23 835.034C710.927 835.317 707.668 839.032 707.951 843.333C708.234 847.633 711.951 850.89 716.254 850.607C720.557 850.324 723.817 846.609 723.534 842.309C723.251 838.009 719.533 834.752 715.23 835.034V835.034ZM717.027 836.251C719.686 836.076 722.481 838.812 722.713 842.344C722.946 845.875 720.528 848.865 717.868 849.039C715.21 849.213 712.866 846.492 712.634 842.961C712.402 839.43 714.368 836.426 717.027 836.251Z" fill="#747474" fill-opacity="0.08"/>
<path d="M748.227 835.011C744.203 836.563 742.2 841.08 743.753 845.1C745.305 849.121 749.825 851.123 753.848 849.571C757.872 848.02 759.875 843.503 758.322 839.483C756.77 835.462 752.25 833.46 748.227 835.011V835.011ZM750.305 835.637C752.791 834.678 756.275 836.458 757.55 839.76C758.825 843.062 757.408 846.636 754.921 847.594C752.435 848.552 749.387 846.652 748.112 843.351C746.838 840.05 747.819 836.596 750.305 835.637V835.637Z" fill="#747474" fill-opacity="0.08"/>
<path d="M780.093 825.057C776.07 826.609 774.067 831.126 775.619 835.146C777.172 839.167 781.692 841.169 785.715 839.617C789.738 838.066 791.741 833.549 790.189 829.529C788.637 825.508 784.117 823.506 780.093 825.057V825.057ZM782.172 825.683C784.658 824.724 788.142 826.504 789.417 829.806C790.691 833.108 789.274 836.682 786.788 837.64C784.302 838.598 781.254 836.698 779.979 833.397C778.704 830.096 779.686 826.642 782.172 825.683V825.683Z" fill="#747474" fill-opacity="0.08"/>
<path fill-rule="evenodd" clip-rule="evenodd" d="M857.042 326.316L845.868 338.434L669.307 338.402L690.476 326.316L857.042 326.316Z" fill="#747474" fill-opacity="0.08"/>
<path fill-rule="evenodd" clip-rule="evenodd" d="M729.162 287.51L730.163 305.26L668.968 337.789L729.162 287.51Z" stroke="#747474" stroke-opacity="0.08" stroke-width="1.06667"/>
<path fill-rule="evenodd" clip-rule="evenodd" d="M740.282 278.808L754.439 267.124L754.987 292.956L742.109 299.71L740.282 278.808Z" stroke="#747474" stroke-opacity="0.08" stroke-width="1.06667"/>
<path fill-rule="evenodd" clip-rule="evenodd" d="M766.404 257.449L780.196 245.765L782.023 278.534L769.144 285.288L766.404 257.449Z" stroke="#747474" stroke-opacity="0.08" stroke-width="1.06667"/>
<path fill-rule="evenodd" clip-rule="evenodd" d="M796.372 232.019L810.164 220.336L811.991 262.785L799.112 269.54L796.372 232.019Z" stroke="#747474" stroke-opacity="0.08" stroke-width="1.06667"/>
<path d="M842.398 241.732C850.661 241.732 857.36 235.038 857.36 226.78C857.36 218.522 850.661 211.828 842.398 211.828C834.134 211.828 827.436 218.522 827.436 226.78C827.436 235.038 834.134 241.732 842.398 241.732Z" stroke="#747474" stroke-opacity="0.08" stroke-width="1.06667"/>
<path fill-rule="evenodd" clip-rule="evenodd" d="M565.096 227.327L567.47 218.93L601.083 241.749L585.373 247.956L593.593 261.465L577.152 267.307L568.018 247.591L556.145 252.52L565.096 227.327Z" fill="#747474" fill-opacity="0.08"/>
<path fill-rule="evenodd" clip-rule="evenodd" d="M580.987 687.363L647.723 713.954L688.036 690.65L580.987 687.363ZM607.11 692.657L668.672 695.213L644.194 705.437L607.11 692.657Z" stroke="#747474" stroke-opacity="0.08" stroke-width="1.06667"/>
<path fill-rule="evenodd" clip-rule="evenodd" d="M710.689 692.474L662.829 719.127L775.721 753.082L817.37 701.239L710.689 692.474ZM716.168 700.143L799.103 708.905L768.778 741.401L685.843 716.571L716.168 700.143Z" stroke="#747474" stroke-opacity="0.08" stroke-width="1.06667"/>
<path fill-rule="evenodd" clip-rule="evenodd" d="M833.637 702.763L793.988 758.925L940.129 807.849L975.619 716.425L833.637 702.763ZM839.422 712.025L960.276 724.563L933.919 790.325L810.474 754.089L839.422 712.025Z" stroke="#747474" stroke-opacity="0.08" stroke-width="1.06667"/>
<path d="M575.326 694.3L578.547 702.773L582.686 698.512L585.52 705.993L590.541 701.927L592.872 709.786L598.623 705.493L601.448 713.103L607.36 709.176L609.486 717.12L615.238 712.569L618.255 720.953L622.768 716.447L625.237 724.012L631.861 719.216L635.061 727.89L640.442 722.279" stroke="#747474" stroke-opacity="0.08" stroke-width="1.06667"/>
<path d="M575.508 692.657L641.916 720.645" stroke="#747474" stroke-opacity="0.08" stroke-width="1.06667"/>
<path d="M658.809 726.247L662.827 736.196L670.226 730.994L674.153 739.939L680.364 734.827L682.922 743.772L689.498 738.57L691.873 748.154L697.719 741.764L701.372 751.348L707.4 745.415L710.689 755.638L717.63 748.975L720.263 758.698L727.221 752.444L729.834 762.736L736.994 755.821L739.979 766.138L747.126 760.127L750.045 770.315L756.237 763.702L758.697 773.226L764.796 766.249" stroke="#747474" stroke-opacity="0.08" stroke-width="1.06667"/>
<path d="M658.443 724.057L765.967 762.625" stroke="#747474" stroke-opacity="0.08" stroke-width="1.06667"/>
<path d="M781.749 770.973L785.403 779.37L790.624 774.499L794.095 783.626L799.028 777.42L803.336 785.675L809.182 780.746L812.974 789.807L818.734 784.945L822.388 794.62L828.031 788.5L831.985 798.904L837.465 791.784L842.397 802.19L848.974 796.165L853.358 806.388L860.391 800.455L863.461 809.873L870.255 804.654L874.174 813.303L880.01 807.78L883.779 816.695L890.755 811.144L894.113 821.084L901.734 815.146L905.48 824.698L912.326 819.406L916.456 827.816L921.697 823.042" stroke="#747474" stroke-opacity="0.08" stroke-width="1.06667"/>
<path d="M780.442 767.255L925.373 820.438" stroke="#747474" stroke-opacity="0.08" stroke-width="1.06667"/>
<path d="M143.111 958.043C146.393 958.043 149.053 955.384 149.053 952.105C149.053 948.826 146.393 946.167 143.111 946.167C139.83 946.167 137.169 948.826 137.169 952.105C137.169 955.384 139.83 958.043 143.111 958.043Z" fill="#747474" fill-opacity="0.08"/>
<path d="M163.521 932.226C166.802 932.226 169.462 929.568 169.462 926.288C169.462 923.009 166.802 920.35 163.521 920.35C160.239 920.35 157.579 923.009 157.579 926.288C157.579 929.568 160.239 932.226 163.521 932.226Z" fill="#747474" fill-opacity="0.08"/>
<path d="M187.029 908.474C190.311 908.474 192.971 905.816 192.971 902.536C192.971 899.257 190.311 896.598 187.029 896.598C183.748 896.598 181.087 899.257 181.087 902.536C181.087 905.816 183.748 908.474 187.029 908.474Z" fill="#747474" fill-opacity="0.08"/>
<path d="M212.347 886.272C215.629 886.272 218.289 883.613 218.289 880.334C218.289 877.054 215.629 874.396 212.347 874.396C209.066 874.396 206.405 877.054 206.405 880.334C206.405 883.613 209.066 886.272 212.347 886.272Z" fill="#747474" fill-opacity="0.08"/>
<path d="M236.631 867.683C239.913 867.683 242.573 865.025 242.573 861.746C242.573 858.466 239.913 855.808 236.631 855.808C233.35 855.808 230.689 858.466 230.689 861.746C230.689 865.025 233.35 867.683 236.631 867.683Z" fill="#747474" fill-opacity="0.08"/>
<path d="M259.365 851.677C262.647 851.677 265.307 849.019 265.307 845.739C265.307 842.46 262.647 839.801 259.365 839.801C256.084 839.801 253.423 842.46 253.423 845.739C253.423 849.019 256.084 851.677 259.365 851.677Z" fill="#747474" fill-opacity="0.08"/>
<path d="M285.975 835.67C289.256 835.67 291.916 833.012 291.916 829.732C291.916 826.453 289.256 823.795 285.975 823.795C282.693 823.795 280.033 826.453 280.033 829.732C280.033 833.012 282.693 835.67 285.975 835.67Z" fill="#747474" fill-opacity="0.08"/>
<path d="M314.393 821.471C317.674 821.471 320.334 818.813 320.334 815.533C320.334 812.254 317.674 809.595 314.393 809.595C311.111 809.595 308.451 812.254 308.451 815.533C308.451 818.813 311.111 821.471 314.393 821.471Z" fill="#747474" fill-opacity="0.08"/>
<path d="M343.843 810.628C347.125 810.628 349.785 807.969 349.785 804.69C349.785 801.411 347.125 798.752 343.843 798.752C340.562 798.752 337.901 801.411 337.901 804.69C337.901 807.969 340.562 810.628 343.843 810.628Z" fill="#747474" fill-opacity="0.08"/>
<path d="M376.653 797.461C379.934 797.461 382.595 794.803 382.595 791.523C382.595 788.244 379.934 785.586 376.653 785.586C373.371 785.586 370.711 788.244 370.711 791.523C370.711 794.803 373.371 797.461 376.653 797.461Z" fill="#747474" fill-opacity="0.08"/>
<path d="M409.721 787.909C413.002 787.909 415.663 785.251 415.663 781.971C415.663 778.692 413.002 776.033 409.721 776.033C406.439 776.033 403.779 778.692 403.779 781.971C403.779 785.251 406.439 787.909 409.721 787.909Z" fill="#747474" fill-opacity="0.08"/>
<path d="M442.014 779.648C445.295 779.648 447.956 776.989 447.956 773.71C447.956 770.43 445.295 767.772 442.014 767.772C438.732 767.772 436.072 770.43 436.072 773.71C436.072 776.989 438.732 779.648 442.014 779.648Z" fill="#747474" fill-opacity="0.08"/>
<path d="M473.532 775.259C476.813 775.259 479.474 772.6 479.474 769.321C479.474 766.041 476.813 763.383 473.532 763.383C470.25 763.383 467.59 766.041 467.59 769.321C467.59 772.6 470.25 775.259 473.532 775.259Z" fill="#747474" fill-opacity="0.08"/>
<path d="M514.35 783.52C517.631 783.52 520.291 780.862 520.291 777.582C520.291 774.303 517.631 771.644 514.35 771.644C511.068 771.644 508.408 774.303 508.408 777.582C508.408 780.862 511.068 783.52 514.35 783.52Z" stroke="#747474" stroke-opacity="0.08" stroke-width="1.06667"/>
<path d="M498.525 767.824C501.486 767.824 503.886 765.426 503.886 762.467C503.886 759.509 501.486 757.111 498.525 757.111C495.565 757.111 493.165 759.509 493.165 762.467C493.165 765.426 495.565 767.824 498.525 767.824Z" stroke="#747474" stroke-opacity="0.08" stroke-width="0.962269"/>
<path d="M483.813 751.304C486.594 751.304 488.848 749.052 488.848 746.273C488.848 743.494 486.594 741.242 483.813 741.242C481.032 741.242 478.778 743.494 478.778 746.273C478.778 749.052 481.032 751.304 483.813 751.304Z" stroke="#747474" stroke-opacity="0.08" stroke-width="0.9038"/>
<path d="M467.459 734.199C470.374 734.199 472.737 731.837 472.737 728.923C472.737 726.01 470.374 723.648 467.459 723.648C464.543 723.648 462.18 726.01 462.18 728.923C462.18 731.837 464.543 734.199 467.459 734.199Z" stroke="#747474" stroke-opacity="0.08" stroke-width="0.947652"/>
<path d="M451.669 717.909C454.494 717.909 456.785 715.62 456.785 712.797C456.785 709.973 454.494 707.684 451.669 707.684C448.843 707.684 446.553 709.973 446.553 712.797C446.553 715.62 448.843 717.909 451.669 717.909Z" stroke="#747474" stroke-opacity="0.08" stroke-width="0.918417"/>
<path d="M436.351 701.62C439.086 701.62 441.304 699.404 441.304 696.67C441.304 693.936 439.086 691.72 436.351 691.72C433.615 691.72 431.397 693.936 431.397 696.67C431.397 699.404 433.615 701.62 436.351 701.62Z" stroke="#747474" stroke-opacity="0.08" stroke-width="0.889183"/>
<path d="M420.339 683.24C422.984 683.24 425.129 681.096 425.129 678.452C425.129 675.809 422.984 673.665 420.339 673.665C417.693 673.665 415.548 675.809 415.548 678.452C415.548 681.096 417.693 683.24 420.339 683.24Z" stroke="#747474" stroke-opacity="0.08" stroke-width="0.859948"/>
<path d="M680.97 647.372C683.616 647.372 685.76 645.229 685.76 642.585C685.76 639.941 683.616 637.798 680.97 637.798C678.324 637.798 676.18 639.941 676.18 642.585C676.18 645.229 678.324 647.372 680.97 647.372Z" fill="#747474" fill-opacity="0.08"/>
<path d="M705.353 634.475C707.999 634.475 710.144 632.331 710.144 629.687C710.144 627.044 707.999 624.9 705.353 624.9C702.708 624.9 700.563 627.044 700.563 629.687C700.563 632.331 702.708 634.475 705.353 634.475Z" fill="#747474" fill-opacity="0.08"/>
<path d="M724.64 616.421C727.286 616.421 729.431 614.278 729.431 611.634C729.431 608.99 727.286 606.847 724.64 606.847C721.995 606.847 719.85 608.99 719.85 611.634C719.85 614.278 721.995 616.421 724.64 616.421Z" fill="#747474" fill-opacity="0.08"/>
<path d="M744.311 593.772C746.957 593.772 749.102 591.629 749.102 588.985C749.102 586.341 746.957 584.198 744.311 584.198C741.666 584.198 739.521 586.341 739.521 588.985C739.521 591.629 741.666 593.772 744.311 593.772Z" fill="#747474" fill-opacity="0.08"/>
<path d="M757.649 565.569C760.294 565.569 762.439 563.426 762.439 560.782C762.439 558.138 760.294 555.995 757.649 555.995C755.003 555.995 752.858 558.138 752.858 560.782C752.858 563.426 755.003 565.569 757.649 565.569Z" fill="#747474" fill-opacity="0.08"/>
<path d="M753.563 533.295C756.209 533.295 758.353 531.151 758.353 528.507C758.353 525.864 756.209 523.72 753.563 523.72C750.917 523.72 748.772 525.864 748.772 528.507C748.772 531.151 750.917 533.295 753.563 533.295Z" fill="#747474" fill-opacity="0.08"/>
<path d="M734.106 509.193C736.752 509.193 738.897 507.05 738.897 504.406C738.897 501.762 736.752 499.619 734.106 499.619C731.461 499.619 729.316 501.762 729.316 504.406C729.316 507.05 731.461 509.193 734.106 509.193Z" fill="#747474" fill-opacity="0.08"/>
<path d="M701.024 497.406C703.67 497.406 705.815 495.263 705.815 492.619C705.815 489.975 703.67 487.832 701.024 487.832C698.379 487.832 696.234 489.975 696.234 492.619C696.234 495.263 698.379 497.406 701.024 497.406Z" fill="#747474" fill-opacity="0.08"/>
<path d="M662.17 498.014C664.816 498.014 666.961 495.871 666.961 493.227C666.961 490.583 664.816 488.44 662.17 488.44C659.525 488.44 657.38 490.583 657.38 493.227C657.38 495.871 659.525 498.014 662.17 498.014Z" fill="#747474" fill-opacity="0.08"/>
<path d="M626.791 507.669C629.437 507.669 631.582 505.525 631.582 502.882C631.582 500.238 629.437 498.094 626.791 498.094C624.146 498.094 622.001 500.238 622.001 502.882C622.001 505.525 624.146 507.669 626.791 507.669Z" fill="#747474" fill-opacity="0.08"/>
<path d="M591.255 516.192C593.9 516.192 596.045 514.048 596.045 511.404C596.045 508.761 593.9 506.617 591.255 506.617C588.609 506.617 586.464 508.761 586.464 511.404C586.464 514.048 588.609 516.192 591.255 516.192Z" fill="#747474" fill-opacity="0.08"/>
<path d="M554.267 508.926C556.913 508.926 559.058 506.783 559.058 504.139C559.058 501.495 556.913 499.352 554.267 499.352C551.622 499.352 549.477 501.495 549.477 504.139C549.477 506.783 551.622 508.926 554.267 508.926Z" fill="#747474" fill-opacity="0.08"/>
<path d="M521.601 496.487C524.247 496.487 526.392 494.343 526.392 491.699C526.392 489.055 524.247 486.912 521.601 486.912C518.956 486.912 516.811 489.055 516.811 491.699C516.811 494.343 518.956 496.487 521.601 496.487Z" fill="#747474" fill-opacity="0.08"/>
<path fill-rule="evenodd" clip-rule="evenodd" d="M557.606 194.833C563.196 184.136 568.71 179.192 580.989 178.403C575.766 181.057 573.532 186.276 576.239 189.721C568.518 188.91 564.281 191.139 557.606 194.833V194.833Z" stroke="#747474" stroke-opacity="0.08" stroke-width="1.06667"/>
<path fill-rule="evenodd" clip-rule="evenodd" d="M494.328 134.093C498.557 132.085 502.626 131.788 504.533 138.094C506.455 129.655 504.274 122.648 499.366 117.441C501.274 125.323 500.229 130.017 494.328 134.093V134.093Z" stroke="#747474" stroke-opacity="0.08" stroke-width="1.06667"/>
<path d="M439.232 46.5991C441.855 46.5991 443.982 44.474 443.982 41.8527C443.982 39.2313 441.855 37.1063 439.232 37.1063C436.609 37.1063 434.482 39.2313 434.482 41.8527C434.482 44.474 436.609 46.5991 439.232 46.5991Z" fill="#747474" fill-opacity="0.08"/>
<path d="M427.906 77.6332C430.529 77.6332 432.656 75.5082 432.656 72.8868C432.656 70.2655 430.529 68.1404 427.906 68.1404C425.283 68.1404 423.157 70.2655 423.157 72.8868C423.157 75.5082 425.283 77.6332 427.906 77.6332Z" fill="#747474" fill-opacity="0.08"/>
<path d="M439.963 110.493C442.586 110.493 444.713 108.368 444.713 105.747C444.713 103.125 442.586 101 439.963 101C437.34 101 435.213 103.125 435.213 105.747C435.213 108.368 437.34 110.493 439.963 110.493Z" fill="#747474" fill-opacity="0.08"/>
<path d="M472.114 123.637C474.737 123.637 476.863 121.512 476.863 118.89C476.863 116.269 474.737 114.144 472.114 114.144C469.491 114.144 467.364 116.269 467.364 118.89C467.364 121.512 469.491 123.637 472.114 123.637Z" fill="#747474" fill-opacity="0.08"/>
<path d="M597.716 191.783C600.339 191.783 602.465 189.658 602.465 187.037C602.465 184.415 600.339 182.29 597.716 182.29C595.093 182.29 592.966 184.415 592.966 187.037C592.966 189.658 595.093 191.783 597.716 191.783Z" fill="#747474" fill-opacity="0.08"/>
<path d="M628.2 205.208C630.823 205.208 632.95 203.083 632.95 200.461C632.95 197.84 630.823 195.715 628.2 195.715C625.577 195.715 623.451 197.84 623.451 200.461C623.451 203.083 625.577 205.208 628.2 205.208Z" fill="#747474" fill-opacity="0.08"/>
<path d="M748.53 205.182C749.931 226.366 729.975 252.897 700.672 245.129C671.369 237.36 663.344 203.069 680.718 183.476" stroke="#747474" stroke-opacity="0.08" stroke-width="3.41333"/>
<path d="M313.101 245.493L356.605 216.817" stroke="#747474" stroke-opacity="0.08" stroke-width="1.06667"/>
<path d="M308.192 256.853L360.13 222.917" stroke="#747474" stroke-opacity="0.08" stroke-width="1.06667"/>
<path d="M305.867 265.889L363.395 228.571" stroke="#747474" stroke-opacity="0.08" stroke-width="1.06667"/>
<path d="M305.351 273.634L367.084 234.954" stroke="#747474" stroke-opacity="0.08" stroke-width="1.06667"/>
<path d="M304.834 282.153L370.849 241.472" stroke="#747474" stroke-opacity="0.08" stroke-width="1.06667"/>
<path d="M302.509 292.222L374.533 247.848" stroke="#747474" stroke-opacity="0.08" stroke-width="1.06667"/>
<path d="M300.7 300.742L377.915 253.703" stroke="#747474" stroke-opacity="0.08" stroke-width="1.06667"/>
<path d="M381.137 260.385L394.359 283.27" stroke="#747474" stroke-opacity="0.08" stroke-width="1.06667"/>
<path d="M375.897 264.021L389.598 291.221" stroke="#747474" stroke-opacity="0.08" stroke-width="1.06667"/>
<path d="M370.33 267.768L385.309 297.159" stroke="#747474" stroke-opacity="0.08" stroke-width="1.06667"/>
<path d="M365.796 271.505L383.881 305.46" stroke="#747474" stroke-opacity="0.08" stroke-width="1.06667"/>
<path d="M361.595 276.069L380.593 314.406" stroke="#747474" stroke-opacity="0.08" stroke-width="1.06667"/>
<path d="M358.033 285.38L376.848 322.986" stroke="#747474" stroke-opacity="0.08" stroke-width="1.06667"/>
<path d="M355.384 294.507L372.738 329.74" stroke="#747474" stroke-opacity="0.08" stroke-width="1.06667"/>
<path d="M354.471 305.826L369.815 337.955" stroke="#747474" stroke-opacity="0.08" stroke-width="1.06667"/>
<path d="M354.105 320.065L367.258 345.622" stroke="#747474" stroke-opacity="0.08" stroke-width="1.06667"/>
<path d="M355.749 337.225L365.979 358.401" stroke="#747474" stroke-opacity="0.08" stroke-width="1.06667"/>
<path d="M848.459 358.755L568.142 359.043L567.653 374.101L533.858 391.808L532.888 416.5L559.425 416.79L500.33 474.812L530.147 474.89" stroke="#747474" stroke-opacity="0.08" stroke-width="1.06667"/>
<path d="M864.533 367.737L620.787 367.35L619.659 377.04L586.111 396.082L584.008 416.866L608.595 416.747L545.544 474.748L575.926 474.672" stroke="#747474" stroke-opacity="0.08" stroke-width="1.06667"/>
<path d="M884.077 375.611L651.271 375.611L650.326 384.269L630.327 395.78L626.827 416.958L648.04 416.898L586.111 475.017L613.811 474.748" stroke="#747474" stroke-opacity="0.08" stroke-width="1.06667"/>
<path d="M908.324 385.289L687.698 384.905L687.439 391.101L666.255 399.363L663.515 416.772L682.371 417.055L627.31 474.684L648.171 474.748" stroke="#747474" stroke-opacity="0.08" stroke-width="1.06667"/>
<path d="M935.061 389.681L727.741 390.069L727.527 398.059L701.27 403.942L698.677 416.918L720.765 417.047L663.323 474.823L691.741 474.74" stroke="#747474" stroke-opacity="0.08" stroke-width="1.06667"/>
<path d="M957.924 399.814L758.074 399.997V405.155L741.66 410.073L740.529 417.112H761.971L713.273 474.748L739.567 474.688" stroke="#747474" stroke-opacity="0.08" stroke-width="1.06667"/>
<path fill-rule="evenodd" clip-rule="evenodd" d="M829.576 644.139L865.635 626.289L856.394 640.224L829.576 644.139Z" fill="#747474" fill-opacity="0.08"/>
<path d="M856.384 639.218L874.686 665.432L865.164 627.089L862.675 628.514" stroke="#747474" stroke-opacity="0.08" stroke-width="0.800471"/>
<path fill-rule="evenodd" clip-rule="evenodd" d="M848.395 512.197L809.215 503.022L825.219 498.156L848.395 512.197Z" fill="#747474" fill-opacity="0.08"/>
<path d="M824.586 498.936L827.175 467.079L810.087 502.703L812.914 503.188" stroke="#747474" stroke-opacity="0.08" stroke-width="0.800471"/>
<path d="M724.937 632.232L781.567 578.196L791.066 583.673L749.26 621.349" stroke="#747474" stroke-opacity="0.08" stroke-width="1.06667"/>
<path fill-rule="evenodd" clip-rule="evenodd" d="M774.808 584.494L783.393 590.61L791.066 583.49L781.475 578.379L774.808 584.494Z" fill="#747474" fill-opacity="0.08"/>
<path d="M725.2 632.021L895.147 556.847" stroke="#747474" stroke-opacity="0.08" stroke-width="1.06667"/>
<path d="M631.816 365.499C633.221 365.499 634.361 364.361 634.361 362.956C634.361 361.552 633.221 360.413 631.816 360.413C630.41 360.413 629.271 361.552 629.271 362.956C629.271 364.361 630.41 365.499 631.816 365.499Z" fill="#747474" fill-opacity="0.08"/>
<path d="M649.137 365.499C650.543 365.499 651.682 364.361 651.682 362.956C651.682 361.552 650.543 360.413 649.137 360.413C647.732 360.413 646.592 361.552 646.592 362.956C646.592 364.361 647.732 365.499 649.137 365.499Z" fill="#747474" fill-opacity="0.08"/>
<path d="M666.459 365.499C667.864 365.499 669.004 364.361 669.004 362.956C669.004 361.552 667.864 360.413 666.459 360.413C665.053 360.413 663.914 361.552 663.914 362.956C663.914 364.361 665.053 365.499 666.459 365.499Z" fill="#747474" fill-opacity="0.08"/>
<path d="M683.78 365.499C685.186 365.499 686.325 364.361 686.325 362.956C686.325 361.552 685.186 360.413 683.78 360.413C682.375 360.413 681.235 361.552 681.235 362.956C681.235 364.361 682.375 365.499 683.78 365.499Z" fill="#747474" fill-opacity="0.08"/>
<path d="M701.102 365.499C702.507 365.499 703.646 364.361 703.646 362.956C703.646 361.552 702.507 360.413 701.102 360.413C699.696 360.413 698.557 361.552 698.557 362.956C698.557 364.361 699.696 365.499 701.102 365.499Z" fill="#747474" fill-opacity="0.08"/>
<path d="M718.423 365.499C719.828 365.499 720.968 364.361 720.968 362.956C720.968 361.552 719.828 360.413 718.423 360.413C717.017 360.413 715.878 361.552 715.878 362.956C715.878 364.361 717.017 365.499 718.423 365.499Z" fill="#747474" fill-opacity="0.08"/>
<path d="M735.744 365.499C737.15 365.499 738.289 364.361 738.289 362.956C738.289 361.552 737.15 360.413 735.744 360.413C734.339 360.413 733.199 361.552 733.199 362.956C733.199 364.361 734.339 365.499 735.744 365.499Z" fill="#747474" fill-opacity="0.08"/>
<path d="M753.065 365.499C754.471 365.499 755.61 364.361 755.61 362.956C755.61 361.552 754.471 360.413 753.065 360.413C751.66 360.413 750.521 361.552 750.521 362.956C750.521 364.361 751.66 365.499 753.065 365.499Z" fill="#747474" fill-opacity="0.08"/>
<path d="M770.387 365.499C771.792 365.499 772.932 364.361 772.932 362.956C772.932 361.552 771.792 360.413 770.387 360.413C768.981 360.413 767.842 361.552 767.842 362.956C767.842 364.361 768.981 365.499 770.387 365.499Z" fill="#747474" fill-opacity="0.08"/>
<path d="M787.708 365.499C789.113 365.499 790.253 364.361 790.253 362.956C790.253 361.552 789.113 360.413 787.708 360.413C786.303 360.413 785.163 361.552 785.163 362.956C785.163 364.361 786.303 365.499 787.708 365.499Z" fill="#747474" fill-opacity="0.08"/>
<path d="M805.029 365.499C806.435 365.499 807.574 364.361 807.574 362.956C807.574 361.552 806.435 360.413 805.029 360.413C803.624 360.413 802.484 361.552 802.484 362.956C802.484 364.361 803.624 365.499 805.029 365.499Z" fill="#747474" fill-opacity="0.08"/>
<path d="M822.351 365.499C823.756 365.499 824.895 364.361 824.895 362.956C824.895 361.552 823.756 360.413 822.351 360.413C820.945 360.413 819.806 361.552 819.806 362.956C819.806 364.361 820.945 365.499 822.351 365.499Z" fill="#747474" fill-opacity="0.08"/>
<path d="M839.672 365.499C841.077 365.499 842.217 364.361 842.217 362.956C842.217 361.552 841.077 360.413 839.672 360.413C838.266 360.413 837.127 361.552 837.127 362.956C837.127 364.361 838.266 365.499 839.672 365.499Z" fill="#747474" fill-opacity="0.08"/>
<path d="M692.526 382.797C693.932 382.797 695.071 381.658 695.071 380.253C695.071 378.849 693.932 377.71 692.526 377.71C691.121 377.71 689.981 378.849 689.981 380.253C689.981 381.658 691.121 382.797 692.526 382.797Z" fill="#747474" fill-opacity="0.08"/>
<path d="M709.848 382.797C711.253 382.797 712.392 381.658 712.392 380.253C712.392 378.849 711.253 377.71 709.848 377.71C708.442 377.71 707.303 378.849 707.303 380.253C707.303 381.658 708.442 382.797 709.848 382.797Z" fill="#747474" fill-opacity="0.08"/>
<path d="M727.169 382.797C728.575 382.797 729.714 381.658 729.714 380.253C729.714 378.849 728.575 377.71 727.169 377.71C725.764 377.71 724.625 378.849 724.625 380.253C724.625 381.658 725.764 382.797 727.169 382.797Z" fill="#747474" fill-opacity="0.08"/>
<path d="M744.491 382.797C745.896 382.797 747.036 381.658 747.036 380.253C747.036 378.849 745.896 377.71 744.491 377.71C743.085 377.71 741.946 378.849 741.946 380.253C741.946 381.658 743.085 382.797 744.491 382.797Z" fill="#747474" fill-opacity="0.08"/>
<path d="M761.812 382.797C763.218 382.797 764.357 381.658 764.357 380.253C764.357 378.849 763.218 377.71 761.812 377.71C760.407 377.71 759.267 378.849 759.267 380.253C759.267 381.658 760.407 382.797 761.812 382.797Z" fill="#747474" fill-opacity="0.08"/>
<path d="M779.133 382.797C780.539 382.797 781.678 381.658 781.678 380.253C781.678 378.849 780.539 377.71 779.133 377.71C777.728 377.71 776.588 378.849 776.588 380.253C776.588 381.658 777.728 382.797 779.133 382.797Z" fill="#747474" fill-opacity="0.08"/>
<path d="M796.455 382.797C797.86 382.797 798.999 381.658 798.999 380.253C798.999 378.849 797.86 377.71 796.455 377.71C795.049 377.71 793.91 378.849 793.91 380.253C793.91 381.658 795.049 382.797 796.455 382.797Z" fill="#747474" fill-opacity="0.08"/>
<path d="M813.776 382.797C815.181 382.797 816.321 381.658 816.321 380.253C816.321 378.849 815.181 377.71 813.776 377.71C812.37 377.71 811.231 378.849 811.231 380.253C811.231 381.658 812.37 382.797 813.776 382.797Z" fill="#747474" fill-opacity="0.08"/>
<path d="M831.097 382.797C832.503 382.797 833.642 381.658 833.642 380.253C833.642 378.849 832.503 377.71 831.097 377.71C829.692 377.71 828.552 378.849 828.552 380.253C828.552 381.658 829.692 382.797 831.097 382.797Z" fill="#747474" fill-opacity="0.08"/>
<path d="M848.418 382.797C849.824 382.797 850.963 381.658 850.963 380.253C850.963 378.849 849.824 377.71 848.418 377.71C847.013 377.71 845.874 378.849 845.874 380.253C845.874 381.658 847.013 382.797 848.418 382.797Z" fill="#747474" fill-opacity="0.08"/>
<path d="M865.74 382.797C867.146 382.797 868.285 381.658 868.285 380.253C868.285 378.849 867.146 377.71 865.74 377.71C864.335 377.71 863.195 378.849 863.195 380.253C863.195 381.658 864.335 382.797 865.74 382.797Z" fill="#747474" fill-opacity="0.08"/>
<path d="M883.061 382.797C884.467 382.797 885.606 381.658 885.606 380.253C885.606 378.849 884.467 377.71 883.061 377.71C881.656 377.71 880.517 378.849 880.517 380.253C880.517 381.658 881.656 382.797 883.061 382.797Z" fill="#747474" fill-opacity="0.08"/>
<path d="M772.419 397.125C773.824 397.125 774.964 395.986 774.964 394.582C774.964 393.177 773.824 392.039 772.419 392.039C771.013 392.039 769.874 393.177 769.874 394.582C769.874 395.986 771.013 397.125 772.419 397.125Z" fill="#747474" fill-opacity="0.08"/>
<path d="M789.74 397.125C791.146 397.125 792.285 395.986 792.285 394.582C792.285 393.177 791.146 392.039 789.74 392.039C788.335 392.039 787.195 393.177 787.195 394.582C787.195 395.986 788.335 397.125 789.74 397.125Z" fill="#747474" fill-opacity="0.08"/>
<path d="M807.061 397.125C808.467 397.125 809.606 395.986 809.606 394.582C809.606 393.177 808.467 392.039 807.061 392.039C805.656 392.039 804.517 393.177 804.517 394.582C804.517 395.986 805.656 397.125 807.061 397.125Z" fill="#747474" fill-opacity="0.08"/>
<path d="M824.383 397.125C825.788 397.125 826.928 395.986 826.928 394.582C826.928 393.177 825.788 392.039 824.383 392.039C822.977 392.039 821.838 393.177 821.838 394.582C821.838 395.986 822.977 397.125 824.383 397.125Z" fill="#747474" fill-opacity="0.08"/>
<path d="M841.705 397.125C843.11 397.125 844.249 395.986 844.249 394.582C844.249 393.177 843.11 392.039 841.705 392.039C840.299 392.039 839.16 393.177 839.16 394.582C839.16 395.986 840.299 397.125 841.705 397.125Z" fill="#747474" fill-opacity="0.08"/>
<path d="M859.026 397.125C860.431 397.125 861.571 395.986 861.571 394.582C861.571 393.177 860.431 392.039 859.026 392.039C857.62 392.039 856.481 393.177 856.481 394.582C856.481 395.986 857.62 397.125 859.026 397.125Z" fill="#747474" fill-opacity="0.08"/>
<path d="M876.347 397.125C877.752 397.125 878.892 395.986 878.892 394.582C878.892 393.177 877.752 392.039 876.347 392.039C874.941 392.039 873.802 393.177 873.802 394.582C873.802 395.986 874.941 397.125 876.347 397.125Z" fill="#747474" fill-opacity="0.08"/>
<path d="M893.668 397.125C895.074 397.125 896.213 395.986 896.213 394.582C896.213 393.177 895.074 392.039 893.668 392.039C892.263 392.039 891.124 393.177 891.124 394.582C891.124 395.986 892.263 397.125 893.668 397.125Z" fill="#747474" fill-opacity="0.08"/>
<path d="M910.99 397.125C912.395 397.125 913.535 395.986 913.535 394.582C913.535 393.177 912.395 392.039 910.99 392.039C909.584 392.039 908.445 393.177 908.445 394.582C908.445 395.986 909.584 397.125 910.99 397.125Z" fill="#747474" fill-opacity="0.08"/>
<path d="M928.311 397.125C929.717 397.125 930.856 395.986 930.856 394.582C930.856 393.177 929.717 392.039 928.311 392.039C926.906 392.039 925.766 393.177 925.766 394.582C925.766 395.986 926.906 397.125 928.311 397.125Z" fill="#747474" fill-opacity="0.08"/>
<path d="M367.145 455.377C371.639 455.377 375.283 451.736 375.283 447.244C375.283 442.753 371.639 439.112 367.145 439.112C362.651 439.112 359.007 442.753 359.007 447.244C359.007 451.736 362.651 455.377 367.145 455.377Z" fill="#747474" fill-opacity="0.08"/>
</g>
<defs>
<filter id="filter0_i_11_6" x="0" y="0.5" width="1038" height="997" filterUnits="userSpaceOnUse" color-interpolation-filters="sRGB">
<feFlood flood-opacity="0" result="BackgroundImageFix"/>
<feBlend mode="normal" in="SourceGraphic" in2="BackgroundImageFix" result="shape"/>
<feColorMatrix in="SourceAlpha" type="matrix" values="0 0 0 0 0 0 0 0 0 0 0 0 0 0 0 0 0 0 127 0" result="hardAlpha"/>
<feOffset dy="1"/>
<feGaussianBlur stdDeviation="0.5"/>
<feComposite in2="hardAlpha" operator="arithmetic" k2="-1" k3="1"/>
<feColorMatrix type="matrix" values="0 0 0 0 0 0 0 0 0 0 0 0 0 0 0 0 0 0 0.08 0"/>
<feBlend mode="normal" in2="shape" result="effect1_innerShadow_11_6"/>
</filter>
</defs>
</svg>
