<svg id="anelialogo" width="48" height="48" viewBox="0 0 48 48" fill="none" xmlns="http://www.w3.org/2000/svg">
<path fill-rule="evenodd" clip-rule="evenodd" d="M9.5748 35.647L29.3275 48H0V44.1662C0 43.8953 0.127468 43.6665 0.321762 43.4781L8.16814 35.8027C8.54584 35.4338 9.12559 35.3699 9.5748 35.647ZM0.197406 23.7716C0.195852 23.7706 0.194293 23.7697 0.192738 23.7688C0.0885966 23.6909 0.00310871 23.6161 0 23.4906V8.0301e-06H2.29734C2.3735 8.0301e-06 2.47298 -0.00248386 2.56935 0.080326L47.8554 43.5793C47.9549 43.6743 48 43.8206 48 43.9607V48H38.6366C38.5107 48 38.3879 47.9595 38.2791 47.8957L0.197406 23.7716ZM28.6467 17.6832C28.4291 17.4639 28.3063 17.1659 28.3094 16.8562C28.3125 16.5464 28.4384 16.2505 28.6607 16.0349L45.0669 0.256381C45.2379 0.0918513 45.4711 0.00032155 45.7073 0.00032155H48V35.5038C48 35.7731 47.8508 36.0237 47.6021 36.1264C47.3549 36.2292 47.0705 36.1716 46.8808 35.9817L28.6467 17.6832Z" fill="#E5E7EB"/>
</svg>
