<svg width="454" height="454" viewBox="0 0 454 454" fill="none" xmlns="http://www.w3.org/2000/svg">
<g clip-path="url(#clip0_1522_1159)">
<rect x="226.535" y="15.4653" width="299.106" height="299.106" rx="10" transform="rotate(45 226.535 15.4653)" fill="black"/>
<mask id="mask0_1522_1159" style="mask-type:luminance" maskUnits="userSpaceOnUse" x="21" y="22" width="411" height="410">
<rect x="226.534" y="15.5347" width="299.106" height="299.106" rx="16" transform="rotate(45 226.534 15.5347)" fill="white"/>
</mask>
<g mask="url(#mask0_1522_1159)">
<path d="M69.1216 271.51L243.308 97.0933M73.1489 275.294L247.335 100.877M76.6898 278.957L250.876 104.54M80.2305 282.373L254.417 107.956M84.1348 286.283L258.321 111.866" stroke="#1F2937" stroke-width="2" stroke-miterlimit="1.5" stroke-linecap="round" stroke-linejoin="round"/>
<path d="M211.521 409.284L382.058 238.576M215.548 413.068L386.085 242.36M219.089 416.731L389.626 246.022M222.63 420.147L393.167 249.439M226.535 424.057L397.072 253.348" stroke="#1F2937" stroke-width="2" stroke-miterlimit="1.5" stroke-linecap="round" stroke-linejoin="round"/>
<path d="M161.124 94.6464L335.31 -79.7705M165.151 98.4304L339.338 -75.9865M168.692 102.093L342.878 -72.3236M172.232 105.51L346.419 -68.9072M176.137 109.419L350.323 -64.998" stroke="#1F2937" stroke-width="2" stroke-miterlimit="1.5" stroke-linecap="round" stroke-linejoin="round"/>
<path d="M35.606 226.914L66.0683 226.914M39.3475 231.729L62.3286 231.729M39.3475 222.099L62.3286 222.099M43.2224 217.284L58.4536 217.284M43.2224 236.544L58.4536 236.544" stroke="#BBA6FF" stroke-opacity="0.5" stroke-width="2" stroke-miterlimit="1.5" stroke-linecap="round" stroke-linejoin="round"/>
<path d="M389.181 226.914L419.644 226.914M392.923 231.729L415.904 231.729M392.923 222.099L415.904 222.099M396.798 217.284L412.029 217.284M396.798 236.544L412.029 236.544" stroke="#BBA6FF" stroke-opacity="0.5" stroke-width="2" stroke-miterlimit="1.5" stroke-linecap="round" stroke-linejoin="round"/>
</g>
<rect x="226.535" y="1.41421" width="319.027" height="319.027" rx="19" transform="rotate(45 226.535 1.41421)" stroke="black" stroke-width="2"/>
<path fill-rule="evenodd" clip-rule="evenodd" d="M140.399 293.994L252.623 364.685H86V342.746C86 341.196 86.7242 339.886 87.8281 338.808L132.407 294.885C134.553 292.774 137.847 292.408 140.399 293.994ZM87.1216 226.035C87.1127 226.03 87.1039 226.025 87.095 226.019C86.5034 225.574 86.0177 225.146 86 224.428V90H99.0522C99.485 90 100.05 89.9858 100.598 90.4597L357.889 339.387C358.454 339.931 358.71 340.768 358.71 341.57V364.685H305.512C304.797 364.685 304.099 364.454 303.481 364.088L87.1216 226.035ZM248.755 191.194C247.519 189.939 246.821 188.234 246.839 186.461C246.856 184.689 247.572 182.995 248.835 181.762L342.046 91.4672C343.017 90.5256 344.342 90.0018 345.684 90.0018H358.71V293.174C358.71 294.715 357.862 296.15 356.449 296.737C355.045 297.325 353.429 296.996 352.352 295.909L248.755 191.194Z" fill="#BBA6FF" fill-opacity="0.5"/>
<mask id="mask1_1522_1159" style="mask-type:alpha" maskUnits="userSpaceOnUse" x="51" y="90" width="273" height="275">
<path fill-rule="evenodd" clip-rule="evenodd" d="M105.399 293.994L217.623 364.685H51V342.746C51 341.196 51.7242 339.886 52.8281 338.808L97.4069 294.885C99.5529 292.774 102.847 292.408 105.399 293.994ZM52.1216 226.035C52.1127 226.03 52.1039 226.025 52.095 226.019C51.5034 225.574 51.0177 225.146 51 224.428V90H64.0522C64.485 90 65.0501 89.9858 65.5977 90.4597L322.889 339.387C323.454 339.931 323.71 340.768 323.71 341.57V364.685H270.512C269.797 364.685 269.099 364.454 268.481 364.088L52.1216 226.035ZM213.755 191.194C212.519 189.939 211.821 188.234 211.839 186.461C211.856 184.689 212.572 182.995 213.835 181.762L307.046 91.4672C308.017 90.5256 309.342 90.0018 310.684 90.0018H323.71V293.174C323.71 294.715 322.862 296.15 321.449 296.737C320.045 297.325 318.429 296.996 317.352 295.909L213.755 191.194Z" fill="#EFC87F"/>
</mask>
<g mask="url(#mask1_1522_1159)">
<path d="M54.4771 401.401V48.5M68.5014 401.401V48.5M82.5278 401.401V48.5M96.5522 401.401V48.5M110.579 401.401V48.5M124.603 401.401V48.5M138.629 401.401V48.5M152.654 401.401V48.5M166.68 401.401V48.5M180.704 401.401V48.5M194.731 401.401V48.5M208.757 401.401V48.5M222.782 401.401V48.5M236.808 401.401V48.5M250.832 401.401V48.5M264.859 401.401V48.5M278.883 401.401V48.5M292.91 401.401V48.5M306.934 401.401V48.5M320.961 401.401V48.5" stroke="#EFC87F" stroke-width="3" stroke-miterlimit="1.5" stroke-linecap="round" stroke-linejoin="round" stroke-dasharray="8 8"/>
</g>
<path fill-rule="evenodd" clip-rule="evenodd" d="M184.399 293.994L296.623 364.685H130V342.746C130 341.196 130.724 339.886 131.828 338.808L176.407 294.885C178.553 292.774 181.847 292.408 184.399 293.994ZM131.122 226.035C131.113 226.03 131.104 226.025 131.095 226.019C130.503 225.574 130.018 225.146 130 224.428V90H143.052C143.485 90 144.05 89.9858 144.598 90.4597L401.889 339.387C402.454 339.931 402.71 340.768 402.71 341.57V364.685H349.512C348.797 364.685 348.099 364.454 347.481 364.088L131.122 226.035ZM292.755 191.194C291.519 189.939 290.821 188.234 290.839 186.461C290.856 184.689 291.572 182.995 292.835 181.762L386.046 91.4672C387.017 90.5256 388.342 90.0018 389.684 90.0018H402.71V293.174C402.71 294.715 401.862 296.15 400.449 296.737C399.045 297.325 397.429 296.996 396.352 295.909L292.755 191.194Z" fill="url(#paint0_linear_1522_1159)" fill-opacity="0.8"/>
<path d="M191.714 121.958C193.97 124.214 197.628 124.214 199.884 121.958C202.14 119.702 202.14 116.044 199.884 113.787C197.628 111.531 193.97 111.531 191.714 113.787C189.457 116.044 189.457 119.702 191.714 121.958Z" fill="#1F2937"/>
<path d="M189.821 123.847C193.123 127.148 198.475 127.148 201.776 123.847C205.077 120.546 205.077 115.193 201.776 111.892C198.475 108.591 193.123 108.591 189.821 111.892C186.52 115.193 186.52 120.546 189.821 123.847Z" stroke="#1F2937" stroke-width="2.00144" stroke-miterlimit="1.5" stroke-linecap="round" stroke-linejoin="round"/>
<path d="M266.63 93.3262C269.821 93.3262 272.408 90.7396 272.408 87.5489C272.408 84.3581 269.821 81.7715 266.63 81.7715C263.44 81.7715 260.853 84.3581 260.853 87.5489C260.853 90.7396 263.44 93.3262 266.63 93.3262Z" fill="#BBA6FF" fill-opacity="0.5"/>
<path d="M266.628 96.0004C271.297 96.0004 275.081 92.2157 275.081 87.547C275.081 82.8784 271.297 79.0936 266.628 79.0936C261.959 79.0936 258.175 82.8784 258.175 87.547C258.175 92.2157 261.959 96.0004 266.628 96.0004Z" stroke="#BBA6FF" stroke-opacity="0.5" stroke-width="2.00144" stroke-miterlimit="1.5" stroke-linecap="round" stroke-linejoin="round"/>
<path d="M209.81 393.825C212.066 391.568 212.066 387.91 209.81 385.654C207.554 383.398 203.896 383.398 201.639 385.654C199.383 387.91 199.383 391.568 201.639 393.825C203.896 396.081 207.554 396.081 209.81 393.825Z" fill="#1F2937"/>
<path d="M211.699 395.717C215.001 392.416 215.001 387.063 211.699 383.762C208.398 380.461 203.046 380.461 199.744 383.762C196.443 387.063 196.443 392.416 199.745 395.717C203.046 399.018 208.398 399.018 211.699 395.717Z" stroke="#1F2937" stroke-width="2.00144" stroke-miterlimit="1.5" stroke-linecap="round" stroke-linejoin="round"/>
</g>
<defs>
<linearGradient id="paint0_linear_1522_1159" x1="402.71" y1="355.84" x2="130.45" y2="89.5454" gradientUnits="userSpaceOnUse">
<stop stop-color="#815CDF"/>
<stop offset="0.5" stop-color="#00D6FF"/>
<stop offset="1" stop-color="#53FBDD"/>
</linearGradient>
<clipPath id="clip0_1522_1159">
<rect width="454" height="454" fill="white"/>
</clipPath>
</defs>
</svg>
